<svg xmlns="http://www.w3.org/2000/svg" xmlns:xlink="http://www.w3.org/1999/xlink" width="108" height="175" viewBox="0 0 108 175"><defs><filter id="a" width="156.1%" height="130.9%" x="-28%" y="-10.7%" filterUnits="objectBoundingBox"><feOffset dy="7" in="SourceAlpha" result="shadowOffsetOuter1"/><feGaussianBlur in="shadowOffsetOuter1" result="shadowBlurOuter1" stdDeviation="6.5"/><feColorMatrix in="shadowBlurOuter1" result="shadowMatrixOuter1" values="0 0 0 0 0 0 0 0 0 0 0 0 0 0 0 0 0 0 0.091966712 0"/><feMerge><feMergeNode in="shadowMatrixOuter1"/><feMergeNode in="SourceGraphic"/></feMerge></filter><linearGradient id="c" x1="50%" x2="50%" y1="0%" y2="92.774%"><stop offset="0%" stop-color="#D3C39E" stop-opacity="0"/><stop offset="100%" stop-color="#D3C39E"/></linearGradient><path id="b" d="M8.768 127.528C5.661 124.778.175 116.137.175 107.17V.276h20.627c-2.366 1.24-10.157 8.573-12.511 18.27-3.46 14.264 6.019 25.047 7.598 26.6 7.086 6.974 23.01 18.666 39.786 32.03-8.442 25.147-18.003 41.175-33.15 59.05-3.45-1.63-6.237-2.043-13.757-8.698zm-1.193 6.714c3.37 2.824 7.877 5.874 10.858 6.743-2.788 3.213-4.228 4.679-7.182 7.599-6.46-.275-11.076.126-11.076.126l-.132-24.342c2.953 4.512 4.157 7.047 7.532 9.874zM43.937.447h24.931c.115 14.767-1.277 29.861-4.401 45.317-1.744 8.627-2.593 11.976-4.532 18.336C45.01 51.694 27.801 40.122 23.45 33.888c-4.58-6.557-4.867-17.916-.017-24.043 4.79-6.05 9.384-9.569 20.504-9.398z"/></defs><g fill="none" fill-rule="evenodd" filter="url(#a)" transform="translate(13 6)"><path fill="#D3C39E" d="M81.2 91.903c.42 1.655 0-91.47 0-91.47S47.998.385 41.783.385c-6.22 0-11.424 2.072-15.61 6.216-4.187 4.145-6.673 9.476-6.278 15.958.378 6.233 2.698 11.92 8.127 16.24 8.53 6.786 25.63 20.314 34.172 27.09C72.311 73.916 78.638 81.786 81.2 91.903"/><path fill="#D3C39E" d="M14.721 132.323c5.664 3.833 12.1 5.754 19.302 5.754 7.205 0 13.419-1.493 18.75-4.269 8.456-4.402 15.522-13.923 16.809-26.164.718-6.814-1.077-12.124-3.602-17.444-2.524-5.317-6.628-10.196-12.284-14.66-8.324-6.572-24.918-19.785-33.248-26.35C13.2 43.477 8.536 36.093 7.641 27.108c-.915-9.166 2.89-16.669 8.68-22.917a28.292 28.292 0 0 1 4.48-3.913H.042S.128 95.46.128 105.23c0 11.629 4.864 20.66 14.593 27.092"/><path fill="#D3C39E" d="M81.201 116.65v31.145l-81.157.915v-24.342c3.613 6.986 9.233 12.285 16.894 15.936 2.928 1.392 6.02 2.566 9.348 3.209 5.87 1.134 15.248 2.11 23.908 0 7.216-1.757 13.697-4.665 18.836-9.335 6.22-5.651 10.266-10.798 12.171-17.528"/><use fill="#F7EEE1" xlink:href="#b"/><use fill="url(#c)" xlink:href="#b"/></g></svg>