<svg xmlns="http://www.w3.org/2000/svg" xmlns:xlink="http://www.w3.org/1999/xlink" width="74" height="72" viewBox="0 0 74 72"><defs><path id="a" d="M17.547.87h41.65c.529 0 .949.43.949 1.28l-.009 29.68h-8.95c.12.52.19 1.05.19 1.59 0 3.7-3.011 6.71-6.701 6.71a6.717 6.717 0 0 1-6.709-6.71c0-.54.069-1.07.2-1.59h-7.061v8.42a.962.962 0 0 1-1.379.86c-.67-.34-1.39-.5-2.131-.5-2.64 0-4.79 2.14-4.79 4.78s2.15 4.79 4.79 4.79c.741 0 1.461-.17 2.131-.5a.96.96 0 0 1 .929.04c.281.18.45.49.45.82l.021 10.33H1.107a.96.96 0 0 1-.96-.96V1.83c0-.53.429-.96.96-.96h12.609a.96.96 0 1 1 0 1.92H2.067v27.12h7.05a6.706 6.706 0 0 1 6.509-8.29c3.701 0 6.711 3 6.711 6.7 0 .54-.071 1.08-.2 1.59h7.059v-8.42a.95.95 0 0 1 1.381-.85c.67.33 1.38.5 2.129.5 2.641 0 4.78-2.15 4.78-4.79s-2.139-4.79-4.78-4.79c-.749 0-1.459.17-2.129.5a.938.938 0 0 1-.931-.04.95.95 0 0 1-.45-.81V2.79H17.547a.96.96 0 0 1 0-1.92zm13.559 1.92v7.05a6.55 6.55 0 0 1 1.6-.19c3.69 0 6.701 3 6.701 6.7s-3.011 6.7-6.701 6.7c-.55 0-1.08-.06-1.6-.19v7.05h8.421c.33 0 .64.18.819.46.171.28.19.63.041.93-.33.67-.5 1.38-.5 2.12 0 2.64 2.15 4.79 4.789 4.79 2.641 0 4.78-2.15 4.78-4.79 0-.74-.17-1.45-.499-2.12a.936.936 0 0 1 .049-.93c.17-.28.481-.46.81-.46h8.421V2.79H31.106zM2.067 31.83v27.13h27.129V51.9c-.52.13-1.049.2-1.6.2-3.69 0-6.699-3.01-6.699-6.71 0-3.69 3.009-6.7 6.699-6.7.541 0 1.08.07 1.6.19v-7.05h-8.419c-.33 0-.64-.17-.82-.45a.963.963 0 0 1-.04-.93c.33-.67.5-1.39.5-2.13 0-2.64-2.15-4.79-4.791-4.79-2.64 0-4.78 2.15-4.78 4.79 0 .74.161 1.46.501 2.13.139.29.129.64-.051.93a.947.947 0 0 1-.81.45H2.067z"/></defs><g fill="none" fill-rule="evenodd"><path d="M15.954 19.15H7.491a.92.92 0 0 1-.846-.576.924.924 0 0 1 .234-.99l6.14-5.62c.72-.646 1.188-1.241 1.405-1.817.143-.414.18-.81.107-1.332-.072-.433-.234-1.044-.702-1.513-.468-.45-1.134-.702-2.017-.72h-.036c-.053 0-.378 0-.864.198-.702.307-1.422.883-2.053 1.675a.93.93 0 0 1-1.278.144.911.911 0 0 1-.126-1.278c.883-1.1 1.873-1.855 2.936-2.251.773-.307 1.313-.288 1.494-.288a5.327 5.327 0 0 1 1.836.36c.522.197.991.504 1.37.882.646.648 1.08 1.53 1.222 2.557.073.504.127 1.297-.215 2.178-.306.865-.918 1.693-1.873 2.539l-4.41 4.05h6.14c.485 0 .9.398.9.902s-.415.9-.9.9m3.658-5.077h5.06V8.239l-5.06 5.834zm5.96 5.149a.915.915 0 0 1-.9-.9v-2.45h-7.04a.918.918 0 0 1-.811-.521c-.162-.324-.09-.702.126-.972l7.957-9.13c.234-.287.631-.377.99-.251a.902.902 0 0 1 .576.846v8.229h1.351c.486 0 .9.396.9.899a.915.915 0 0 1-.9.9h-1.35v2.45c0 .486-.396.9-.9.9zm29.611 46.91a.836.836 0 0 1-.414-.108.877.877 0 0 1-.378-1.206l5.726-11.02h-6.626a.903.903 0 0 1-.901-.9c0-.504.397-.9.9-.9h8.103a.907.907 0 0 1 .811 1.315l-6.43 12.333a.898.898 0 0 1-.791.486" fill="#8E1815"/><g transform="translate(1 -.722)"><mask id="b" fill="#fff"><use xlink:href="#a"/></mask><path fill="#8E1815" d="M-4.849 65.872h70v-70h-70z" mask="url(#b)"/></g><g fill="#8E1815"><path fill-rule="nonzero" d="M59.087 2.218h-26.83V8.93c.465-.101.946-.15 1.45-.15 3.776 0 6.85 3.07 6.85 6.85a6.857 6.857 0 0 1-8.3 6.698v6.711h8.27c.378 0 .736.203.948.532.198.327.217.732.046 1.074a4.602 4.602 0 0 0-.484 2.054 4.647 4.647 0 0 0 4.64 4.64c2.555 0 4.63-2.08 4.63-4.64 0-.713-.163-1.4-.485-2.053a1.085 1.085 0 0 1 .056-1.075 1.11 1.11 0 0 1 .939-.532h8.27V2.218zm.15 27.12h-8.42a.81.81 0 0 0-.684.391.787.787 0 0 0-.042.783 4.9 4.9 0 0 1 .516 2.186 4.938 4.938 0 0 1-4.93 4.94 4.947 4.947 0 0 1-4.94-4.94c0-.759.173-1.492.515-2.187a.81.81 0 0 0-.032-.782.837.837 0 0 0-.693-.39h-8.42l-.15-.15v-7.243l.186.047c.5.125 1.016.185 1.564.185 3.61 0 6.55-2.936 6.55-6.55 0-3.613-2.94-6.55-6.55-6.55a6.34 6.34 0 0 0-1.564.186l-.186.046V2.068l.15-.15h27.13l.15.15v27.12l-.15.15zm-29.19 1.92h-8.27a1.13 1.13 0 0 1-.95-.524 1.112 1.112 0 0 1-.045-1.072c.32-.651.485-1.348.485-2.064a4.647 4.647 0 0 0-4.64-4.64 4.638 4.638 0 0 0-4.63 4.64c0 .732.16 1.426.485 2.065.165.342.146.746-.057 1.073a1.098 1.098 0 0 1-.938.522h-8.27v26.83h26.83v-6.72c-.481.106-.962.16-1.45.16-3.775 0-6.85-3.079-6.85-6.86 0-3.773 3.077-6.85 6.85-6.85.474 0 .96.053 1.45.154v-6.714zm.116 7.046a6.987 6.987 0 0 0-1.566-.186c-3.608 0-6.55 2.943-6.55 6.55 0 3.616 2.94 6.56 6.55 6.56.526 0 1.044-.065 1.563-.195l.187-.047v7.252l-.15.15H3.067l-.15-.15v-27.13l.15-.15h8.42c.279 0 .54-.144.682-.379a.813.813 0 0 0 .044-.783 4.812 4.812 0 0 1-.516-2.198 4.938 4.938 0 0 1 4.93-4.94 4.947 4.947 0 0 1 4.94 4.94c0 .762-.175 1.505-.517 2.2a.81.81 0 0 0 .033.78.828.828 0 0 0 .694.38h8.42l.15.15v7.239l-.184-.043zM18.547 2.218a1.11 1.11 0 0 1 0-2.22h41.65c.658 0 1.1.55 1.1 1.43l-.01 29.68-.15.15h-8.764c.101.49.154.968.154 1.44 0 3.781-3.076 6.86-6.85 6.86a6.867 6.867 0 0 1-6.86-6.86c0-.48.054-.96.16-1.44h-6.72v8.27c0 .384-.199.742-.52.936a1.114 1.114 0 0 1-1.078.058 4.512 4.512 0 0 0-2.062-.484 4.638 4.638 0 0 0-4.64 4.63 4.647 4.647 0 0 0 4.64 4.64 4.64 4.64 0 0 0 2.06-.483c.335-.173.75-.154 1.08.047.323.208.52.565.52.946l.02 10.33-.15.15H2.107a1.11 1.11 0 0 1-1.11-1.11V1.108c0-.613.497-1.11 1.11-1.11h12.61a1.11 1.11 0 0 1 0 2.22h-11.5v26.82H9.93a6.856 6.856 0 0 1 6.697-8.29c3.784 0 6.86 3.07 6.86 6.85 0 .482-.055.97-.16 1.44h6.72v-8.27c0-.383.198-.741.522-.938a1.11 1.11 0 0 1 1.074-.046 4.613 4.613 0 0 0 2.064.484c2.555 0 4.63-2.08 4.63-4.64a4.639 4.639 0 0 0-4.63-4.64c-.722 0-1.41.162-2.063.484-.35.175-.756.16-1.075-.046a1.098 1.098 0 0 1-.522-.938v-8.27h-11.5zm41.65-1.92h-41.65a.81.81 0 0 0 0 1.62h11.65l.15.15v8.42a.8.8 0 0 0 .38.684c.232.149.526.16.783.032a4.913 4.913 0 0 1 2.197-.516 4.938 4.938 0 0 1 4.93 4.94 4.938 4.938 0 0 1-4.93 4.94 4.911 4.911 0 0 1-2.197-.516.811.811 0 0 0-.786.034.798.798 0 0 0-.377.682v8.42l-.15.15h-7.253l.047-.187a6.324 6.324 0 0 0 .196-1.553c0-3.615-2.941-6.55-6.56-6.55a6.557 6.557 0 0 0-6.364 8.106l.043.184h-7.24l-.15-.15V2.068l.15-.15h11.65a.81.81 0 0 0 0-1.62H2.107a.81.81 0 0 0-.81.81v58.08c0 .447.363.81.81.81h29.87l-.02-10.18a.826.826 0 0 0-.377-.692.813.813 0 0 0-.786-.033 4.944 4.944 0 0 1-2.196.515 4.947 4.947 0 0 1-4.94-4.94 4.938 4.938 0 0 1 4.94-4.93c.777 0 1.518.172 2.195.515.25.12.554.107.787-.043a.798.798 0 0 0 .378-.682v-8.42l.15-.15h7.252l-.047.187a6.384 6.384 0 0 0-.195 1.553 6.567 6.567 0 0 0 6.56 6.56c3.608 0 6.55-2.944 6.55-6.56 0-.508-.064-1.024-.187-1.556l-.042-.184h8.989l.01-29.53c0-.726-.324-1.13-.8-1.13z"/><path d="M71.147 69.278h-27.12v-8.42c0-.33-.17-.64-.46-.81a.937.937 0 0 0-.93-.05c-.67.33-1.38.5-2.12.5-2.64 0-4.79-2.14-4.79-4.78s2.15-4.79 4.79-4.79c.74 0 1.45.17 2.12.5a.961.961 0 0 0 1.39-.86v-8.42h7.05a6.55 6.55 0 0 0-.19 1.6c0 3.69 3 6.7 6.7 6.7s6.7-3.01 6.7-6.7c0-.55-.06-1.08-.19-1.6h7.05v27.13zm-9.99-29.43l.71 2.85c.08.34.12.69.12 1.05 0 2.42-1.97 4.4-4.4 4.4-2.43 0-4.4-1.98-4.4-4.4 0-.36.04-.71.12-1.05l.7-2.85h-12.28v8.88c-.4-.07-.8-.1-1.21-.1-3.91 0-7.09 3.18-7.09 7.09 0 3.9 3.18 7.08 7.09 7.08.41 0 .81-.03 1.21-.1v8.88h31.72v-31.73h-12.29z"/></g></g></svg>