<svg xmlns="http://www.w3.org/2000/svg" width="44" height="60" viewBox="0 0 44 60"><g fill="#8C1A1A"><path d="M40.367 0H11.34l-.033.002a1.355 1.355 0 0 0-.155.016h-.002a.974.974 0 0 0-.26.093l-.007.003a.964.964 0 0 0-.108.068L10.75.2a.98.98 0 0 0-.098.084L.285 10.652a.981.981 0 0 0-.085.098l-.018.023a.974.974 0 0 0-.068.109l-.003.007A.98.98 0 0 0 .06 11l-.008.023a.955.955 0 0 0-.034.125l-.001.005a1.004 1.004 0 0 0-.017.154V56.955A3.049 3.049 0 0 0 3.045 60h37.322a3.049 3.049 0 0 0 3.046-3.045V3.045A3.049 3.049 0 0 0 40.367 0zm-30 3.318v5.948c0 .607-.494 1.101-1.101 1.101H3.318l7.05-7.049zM41.47 56.955c0 .607-.494 1.101-1.102 1.101H3.045a1.103 1.103 0 0 1-1.101-1.101V12.31h7.322a3.049 3.049 0 0 0 3.045-3.045V1.944h28.056c.608 0 1.102.494 1.102 1.101v53.91z"/><path d="M9.266 16.458h24.88a.972.972 0 1 0 0-1.944H9.267a.972.972 0 1 0 0 1.944zm0 5.183h24.88a.972.972 0 1 0 0-1.943H9.267a.972.972 0 1 0 0 1.943zm0 5.184h24.88a.972.972 0 1 0 0-1.944H9.267a.972.972 0 1 0 0 1.944zm0 5.184h24.88a.972.972 0 1 0 0-1.944H9.267a.972.972 0 1 0 0 1.944zm0 5.183h24.88a.972.972 0 1 0 0-1.944H9.267a.972.972 0 1 0 0 1.944zm12.44 5.313H9.266a.972.972 0 1 0 0 1.944h12.44a.972.972 0 1 0 0-1.944zm0 5.184H9.266a.972.972 0 1 0 0 1.944h12.44a.972.972 0 1 0 0-1.944zm8.812-3.11c-.821 0-1.49.668-1.49 1.49s.669 1.49 1.49 1.49a1.491 1.491 0 0 0 0-2.98z"/><path d="M30.518 40.432a5.644 5.644 0 0 0-5.637 5.637 5.644 5.644 0 0 0 5.637 5.637 5.644 5.644 0 0 0 5.638-5.637 5.644 5.644 0 0 0-5.638-5.637zm0 9.33a3.697 3.697 0 0 1-3.693-3.693 3.697 3.697 0 0 1 3.693-3.693 3.697 3.697 0 0 1 3.694 3.693 3.697 3.697 0 0 1-3.694 3.693z"/></g></svg>