<svg xmlns="http://www.w3.org/2000/svg" width="64" height="60" viewBox="0 0 64 60"><path fill="#8C1A1A" d="M57.813 28.36v-1.162h2.255c.566 0 1.025-.459 1.025-1.025v-3.348h1.162c.566 0 1.025-.46 1.025-1.025v-3.28c0-.368-.197-.708-.516-.89L32.149.134a1.025 1.025 0 0 0-1.017 0L.516 17.629a1.026 1.026 0 0 0-.516.89v3.28c0 .567.459 1.026 1.025 1.026h1.162v3.348c0 .566.459 1.025 1.025 1.025h2.255v1.162c0 .796.442 1.49 1.093 1.853v18.99H3.212c-.566 0-1.025.459-1.025 1.025v3.348H1.025c-.566 0-1.025.46-1.025 1.025v4.374C0 59.54.459 60 1.025 60h61.23c.566 0 1.025-.459 1.025-1.025V54.6c0-.566-.459-1.025-1.025-1.025h-1.162v-3.348c0-.566-.459-1.025-1.025-1.025H56.72v-18.99a2.12 2.12 0 0 0 1.093-1.853zm-2.05 0c0 .038-.03.068-.068.068H51.32a.068.068 0 0 1-.068-.068v-1.162h4.51v1.162zm-9.977 20.843v-18.99a2.12 2.12 0 0 0 1.093-1.853v-1.162h2.324v1.162c0 .796.442 1.49 1.093 1.853v18.99h-4.51zm-4.374 0V30.478h2.324v18.725h-2.324zm-6.56 0v-18.99a2.12 2.12 0 0 0 1.093-1.853v-1.162h2.324v1.162c0 .796.442 1.49 1.093 1.853v18.99h-4.51zm-4.374 0V30.478h2.324v18.725h-2.324zm-6.56 0v-18.99a2.12 2.12 0 0 0 1.093-1.853v-1.162h2.324v1.162c0 .796.442 1.49 1.093 1.853v18.99h-4.51zm-4.374 0V30.478h2.324v18.725h-2.324zm-6.56 0v-18.99a2.12 2.12 0 0 0 1.093-1.853v-1.162h2.324v1.162c0 .796.442 1.49 1.093 1.853v18.99h-4.51zm9.977-22.005v1.162c0 .038-.03.068-.068.068h-4.374a.068.068 0 0 1-.068-.068v-1.162h4.51zm10.934 0v1.162c0 .038-.03.068-.068.068h-4.374a.068.068 0 0 1-.068-.068v-1.162h4.51zm10.934 0v1.162c0 .038-.03.068-.068.068h-4.374a.068.068 0 0 1-.068-.068v-1.162h4.51zM2.05 19.114L31.64 2.206l29.59 16.908v1.66H2.05v-1.66zm2.187 3.71h54.806v2.324H4.237v-2.323zm7.79 4.374v1.162c0 .038-.03.068-.068.068H7.585a.068.068 0 0 1-.068-.068v-1.162h4.51zm-3.417 3.28h2.324v18.725H8.61V30.478zM61.23 57.95H2.05v-2.324h59.18v2.324zm-2.187-4.374H4.237v-2.323h54.806v2.323zm-6.697-4.373V30.478h2.324v18.725h-2.324z"/></svg>