<svg xmlns="http://www.w3.org/2000/svg" width="82" height="72" viewBox="0 0 82 72"><g fill="#8E1815"><path d="M58.45 47.876l9.757 9.757a5.731 5.731 0 0 0 8.106-8.104L45.96 19.177a1.15 1.15 0 1 0-1.627 1.627l30.353 30.351a3.432 3.432 0 0 1-4.853 4.852l-9.757-9.757a1.15 1.15 0 1 0-1.626 1.626z"/><path d="M47.877 50.263l11.987 11.986a5.731 5.731 0 1 0 8.105-8.106l-7.893-7.893a1.15 1.15 0 1 0-1.627 1.627l7.894 7.892a3.433 3.433 0 0 1-4.853 4.854L49.503 48.636a1.15 1.15 0 1 0-1.626 1.627z"/><path d="M41.522 56.617l9.47 9.47a5.643 5.643 0 1 0 7.981-7.981l-9.47-9.47a1.15 1.15 0 0 0-1.626 1.627l9.47 9.469a3.345 3.345 0 0 1-4.728 4.73l-9.47-9.47a1.15 1.15 0 0 0-1.627 1.625z"/><path d="M37.822 65.46l4.595 4.596a5.584 5.584 0 1 0 7.898-7.898l-7.166-7.167a1.15 1.15 0 0 0-1.627 1.626l7.167 7.167a3.284 3.284 0 1 1-4.646 4.646l-4.595-4.595a1.15 1.15 0 1 0-1.626 1.626zm1.566-52.854L28.484 1.7a2.831 2.831 0 0 0-4.005 0L1.273 24.907a2.83 2.83 0 0 0 0 4.005l10.905 10.904a1.15 1.15 0 1 0 1.626-1.626L2.899 27.284a.53.53 0 0 1 0-.75L26.105 3.327a.531.531 0 0 1 .752 0l10.905 10.904a1.15 1.15 0 0 0 1.626-1.626z"/><path d="M22.7 35.869c2.257 2.257 2.257 5.944 0 8.201l-4.053 4.053c-2.257 2.257-5.944 2.257-8.201 0-2.258-2.257-2.258-5.944 0-8.201l4.052-4.053c2.258-2.258 5.945-2.258 8.202 0zm-10.628 5.679a3.513 3.513 0 0 0 0 4.949 3.513 3.513 0 0 0 4.949 0l4.053-4.053a3.513 3.513 0 0 0 0-4.949 3.513 3.513 0 0 0-4.95 0l-4.052 4.053zM49.68 8.888c-2.257-2.257-5.944-2.257-8.2 0l-8.983 8.982c-2.258 2.258-2.258 5.945 0 8.202 2.257 2.257 5.944 2.257 8.201 0l5.266-5.264a1.15 1.15 0 0 0-1.627-1.627l-5.265 5.265a3.513 3.513 0 0 1-4.95 0 3.513 3.513 0 0 1 0-4.95l8.983-8.982a3.513 3.513 0 0 1 4.95 0 1.15 1.15 0 1 0 1.626-1.626z"/><path d="M28.683 43.03c2.257 2.257 2.257 5.944 0 8.202l-4.053 4.053c-2.257 2.257-5.945 2.257-8.202 0-2.257-2.258-2.257-5.945 0-8.202l4.053-4.053c2.257-2.257 5.944-2.257 8.202 0zm-10.628 5.68a3.513 3.513 0 0 0 0 4.948 3.513 3.513 0 0 0 4.949 0l4.052-4.053a3.513 3.513 0 0 0 0-4.949 3.513 3.513 0 0 0-4.949 0l-4.052 4.053z"/><path d="M33.707 50.964c2.258 2.257 2.258 5.944 0 8.201l-2.598 2.598c-2.257 2.258-5.944 2.258-8.202 0-2.257-2.257-2.257-5.944 0-8.201l2.599-2.598c2.257-2.258 5.944-2.258 8.201 0zm-9.173 4.224a3.513 3.513 0 0 0 0 4.95 3.513 3.513 0 0 0 4.949 0l2.598-2.6a3.513 3.513 0 0 0 0-4.948 3.513 3.513 0 0 0-4.949 0l-2.598 2.598z"/><path d="M38.181 59.64c2.257 2.258 2.257 5.945 0 8.202-2.257 2.257-5.944 2.257-8.201 0-2.258-2.257-2.258-5.944 0-8.202 2.257-2.257 5.944-2.257 8.201 0zm-6.575 6.576a3.513 3.513 0 0 0 4.949 0 3.513 3.513 0 0 0 0-4.95 3.513 3.513 0 0 0-4.95 0 3.513 3.513 0 0 0 0 4.95zM45.96 19.177a1.15 1.15 0 0 0-1.627 1.626l20.444 20.444 15.434-15.433a2.834 2.834 0 0 0 0-4.005L59.676 1.272a2.834 2.834 0 0 0-4.005 0l-7.615 7.616a1.15 1.15 0 1 0 1.626 1.626L57.296 2.9a.533.533 0 0 1 .753 0l20.535 20.536a.533.533 0 0 1 0 .753L64.777 37.995 45.96 19.177z"/><path d="M56.253 15.46L49.68 8.888a1.15 1.15 0 0 0-1.626 1.627l6.571 6.571a1.15 1.15 0 1 0 1.627-1.626z"/></g></svg>