<svg width="262" height="77" viewBox="0 0 262 77" xmlns="http://www.w3.org/2000/svg" xmlns:xlink="http://www.w3.org/1999/xlink"><title>Group 33</title><defs><linearGradient x1="50%" y1="0%" x2="50%" y2="92.774%" id="b"><stop stop-color="#D3C39E" stop-opacity="0" offset="0%"/><stop stop-color="#D3C39E" offset="100%"/></linearGradient><path d="M4.491 65.904C2.9 64.482.09 60.017.09 55.384V.142h10.565c-1.212.64-5.203 4.43-6.408 9.441-1.773 7.371 3.082 12.944 3.891 13.747 3.63 3.603 11.786 9.646 20.379 16.551-4.325 12.996-9.222 21.279-16.98 30.517-1.767-.843-3.194-1.056-7.046-4.495zm-.611 3.47c1.726 1.459 4.034 3.035 5.561 3.484-1.428 1.66-2.165 2.418-3.678 3.927-3.31-.142-5.673.065-5.673.065L.022 64.27c1.512 2.333 2.13 3.642 3.858 5.103zM22.504.23h12.77c.059 7.631-.654 15.432-2.254 23.419-.893 4.458-1.329 6.189-2.321 9.475-7.645-6.41-16.46-12.39-18.688-15.613C9.665 14.124 9.517 8.254 12 5.088 14.457 1.96 16.81.143 22.505.23z" id="a"/></defs><g fill="none" fill-rule="evenodd"><path d="M41.895 47.493c.215.856 0-47.27 0-47.27S24.889.2 21.705.2c-3.186 0-5.85 1.07-7.995 3.212-2.145 2.142-3.418 4.897-3.216 8.247.194 3.22 1.382 6.159 4.163 8.392 4.37 3.507 13.128 10.498 17.503 14 5.182 4.147 8.422 8.214 9.735 13.442" fill="#D3C39E"/><path d="M7.844 68.382c2.901 1.98 6.198 2.973 9.887 2.973 3.69 0 6.873-.771 9.604-2.206 4.33-2.275 7.95-7.195 8.609-13.52.367-3.522-.552-6.266-1.845-9.015-1.293-2.748-3.395-5.27-6.292-7.576-4.263-3.397-12.763-10.225-17.03-13.618-3.712-2.952-6.1-6.768-6.56-11.411C3.75 9.272 5.699 5.395 8.665 2.166A14.53 14.53 0 0 1 10.959.144H.326S.37 49.332.37 54.38c0 6.01 2.491 10.677 7.474 14" fill="#D3C39E"/><path d="M41.895 60.282v16.095L.327 76.85V64.27c1.85 3.611 4.729 6.35 8.653 8.236 1.5.72 3.083 1.326 4.788 1.658 3.006.586 7.81 1.09 12.245 0 3.696-.908 7.016-2.41 9.648-4.824 3.185-2.92 5.258-5.58 6.234-9.058" fill="#D3C39E"/><g transform="translate(.304)"><use fill="#F7EEE1" xlink:href="#a"/><use fill="url(#b)" xlink:href="#a"/></g><g fill="#FFF"><path d="M57.428 22.648c-1.691 2.227-2.539 4.63-2.539 7.216 0 3.077 1.286 5.467 3.858 7.168 1.495 1.015 3.197 1.522 5.1 1.522 1.903 0 3.554-.376 4.953-1.13 2.636-1.374 4.116-3.68 4.44-6.922a4.78 4.78 0 0 0 .05-.686c0-1.21-.333-2.52-1.001-3.928-.666-1.406-1.748-2.7-3.245-3.879l-8.786-6.97c-1.919-1.506-2.878-3.454-2.878-5.844 0-2.389.763-4.41 2.293-6.063 1.53-1.653 3.595-2.48 6.198-2.48 1.302 0 2.716.165 4.248.492h1.952l.097 6.038h-.488c-.033-1.572-.594-2.806-1.684-3.706-1.09-.9-2.458-1.35-4.1-1.35-1.643 0-3.019.549-4.125 1.645-1.106 1.096-1.66 2.504-1.66 4.221 0 1.718.716 3.152 2.148 4.296l9.03 7.168c3.58 2.849 5.369 6.284 5.369 10.31 0 3.011-1.189 5.598-3.562 7.759-2.05 1.865-4.784 2.797-8.2 2.797-2.083 0-3.937-.393-5.564-1.177-3.06-1.441-4.898-3.895-5.516-7.366-.097-.522-.146-1.185-.146-1.989 0-.8.227-1.897.684-3.288.455-1.391 1.333-2.79 2.635-4.197l.439.343zM101.76 35.292c.713 0 1.326-.256 1.836-.767.508-.511.776-1.113.803-1.805V21.973H87.528V32.72c0 .72.26 1.327.785 1.825.521.498 1.14.747 1.856.747h.536v.415H81.67v-.415h.536c.715 0 1.326-.249 1.836-.747a2.613 2.613 0 0 0 .805-1.825V9.65a2.618 2.618 0 0 0-.805-1.827 2.53 2.53 0 0 0-1.836-.746h-.536v-.415h9.034v.415h-.536c-.717 0-1.328.248-1.836.746a2.602 2.602 0 0 0-.805 1.826v11.078h16.871V9.65c-.027-.996-.467-1.743-1.318-2.241a2.771 2.771 0 0 0-1.321-.33h-.536v-.416h9.034v.415h-.538c-.715 0-1.326.255-1.834.768a2.673 2.673 0 0 0-.805 1.845v23.03c.027.72.295 1.327.805 1.825a2.525 2.525 0 0 0 1.834.747h.538v.415h-9.034v-.415h.536zM122.632 24.38h10.149l-4.95-13.32-5.199 13.32zm20.296 10.913h.33v.413h-9.281v-.413h.37c.578 0 1.01-.188 1.3-.561.289-.375.434-.727.434-1.057 0-.332-.057-.664-.165-.997l-2.642-7.055h-11.137l-2.764 7.096a3.147 3.147 0 0 0-.164.976c0 .317.145.662.433 1.037.288.373.723.56 1.299.56h.37v.414h-8.29v-.413h.372c.686 0 1.36-.221 2.021-.664.66-.443 1.196-1.094 1.609-1.95l9.321-22.324c1.018-2.242 1.527-3.666 1.527-4.275h.372l11.055 26.598c.385.857.906 1.508 1.566 1.95.66.444 1.348.665 2.064.665zM154.395 7.948h-2.642v24.73c0 .719.255 1.335.765 1.846.508.513 1.134.768 1.877.768h.495l.04.415h-9.033v-.415h.535c.716 0 1.326-.25 1.836-.747a2.613 2.613 0 0 0 .806-1.825V9.692a2.69 2.69 0 0 0-.806-1.847 2.5 2.5 0 0 0-1.836-.768h-.535v-.415h11.137c2.502 0 4.468.697 5.9 2.094 1.428 1.399 2.143 3.21 2.143 5.437 0 2.227-.678 4.148-2.041 5.768-1.361 1.618-3.018 2.426-4.97 2.426.412.194.9.576 1.465 1.143a14.949 14.949 0 0 1 1.504 1.762c2.366 3.404 3.905 5.498 4.62 6.286.715.79 1.223 1.328 1.526 1.62.303.29.633.574.99.848.358.279.716.499 1.074.665a5.773 5.773 0 0 0 2.557.58v.416h-2.27c-1.182 0-2.283-.214-3.3-.642-1.017-.43-1.78-.873-2.288-1.329-.51-.457-.949-.898-1.32-1.328-.371-.428-1.397-1.86-3.073-4.293-1.679-2.434-2.654-3.825-2.93-4.172a20.276 20.276 0 0 0-.865-1.017c-.88-.939-1.761-1.41-2.64-1.41v-.415c.219.028.508.043.866.043s.796-.015 1.32-.043c3.409-.083 5.555-1.522 6.435-4.315a5.457 5.457 0 0 0 .248-1.556v-.933c-.055-1.854-.538-3.347-1.446-4.482-.906-1.135-2.13-1.743-3.67-1.826-.66-.026-1.484-.041-2.474-.041M178.464 31.226c2.322 2.546 5.384 3.817 9.179 3.817 3.793 0 6.852-1.271 9.178-3.817 2.322-2.545 3.485-5.892 3.485-10.041 0-4.15-1.163-7.497-3.485-10.043-2.326-2.544-5.385-3.817-9.178-3.817-3.795 0-6.857 1.273-9.179 3.817-2.324 2.546-3.485 5.893-3.485 10.043 0 4.15 1.161 7.496 3.485 10.04m-2.249-20.974c2.942-2.78 6.76-4.17 11.448-4.17 4.688 0 8.503 1.39 11.445 4.17 2.944 2.78 4.415 6.424 4.415 10.934 0 4.51-1.47 8.153-4.415 10.934-2.942 2.778-6.757 4.17-11.445 4.17-4.689 0-8.506-1.392-11.448-4.17-2.942-2.78-4.413-6.425-4.413-10.934 0-4.51 1.471-8.154 4.413-10.934M227.036 6.662h8.29v.415h-.37c-.688 0-1.363.214-2.021.642-.66.43-1.183 1.074-1.568 1.93l-9.94 22.366c-1.02 2.24-1.528 3.666-1.528 4.273h-.37L207.937 9.69c-.387-.885-.915-1.542-1.59-1.972-.674-.428-1.354-.642-2.042-.642h-.328v-.415h9.281v.415h-.372c-.578 0-1.011.186-1.299.559-.29.374-.435.72-.435 1.039 0 .317.07.642.208.974l8.62 21.742 8.994-21.742c.11-.332.165-.657.165-.974 0-.32-.145-.665-.435-1.04-.288-.372-.72-.558-1.299-.558h-.37v-.415zM240.442 24.38h10.148l-4.95-13.32-5.198 13.32zm20.295 10.913h.33v.413h-9.28v-.413h.37c.578 0 1.01-.188 1.3-.561.288-.375.433-.727.433-1.057 0-.332-.057-.664-.165-.997l-2.641-7.055h-11.138l-2.764 7.096a3.147 3.147 0 0 0-.163.976c0 .317.145.662.433 1.037.288.373.722.56 1.298.56h.37v.414h-8.29v-.413h.373c.686 0 1.36-.221 2.02-.664.661-.443 1.197-1.094 1.61-1.95l9.321-22.324c1.018-2.242 1.526-3.666 1.526-4.275h.373l11.054 26.598c.386.857.907 1.508 1.567 1.95.66.444 1.348.665 2.063.665zM86.703 63.232h10.655L92.16 49.246l-5.457 13.986zm21.31 11.458h.347v.437h-9.745v-.437h.388c.608 0 1.062-.196 1.365-.587.303-.393.455-.764.455-1.11a3.36 3.36 0 0 0-.172-1.047l-2.774-7.406H86.182l-2.902 7.448a3.251 3.251 0 0 0-.172 1.024c0 .334.152.698.455 1.09.302.392.757.588 1.364.588h.39v.437H76.61v-.437H77c.723 0 1.43-.231 2.124-.696.691-.465 1.256-1.148 1.687-2.048l9.79-23.44c1.067-2.352 1.603-3.849 1.603-4.487h.389l11.609 27.927c.403.9.952 1.583 1.645 2.048.693.465 1.414.696 2.166.696zM54.782 74.69c.75 0 1.392-.267 1.928-.806a2.812 2.812 0 0 0 .844-1.937V47.809a2.813 2.813 0 0 0-.844-1.939 2.626 2.626 0 0 0-1.928-.806h-.563v-.436h9.485v.436h-.563c-1.038 0-1.834.45-2.381 1.35-.26.436-.39.9-.39 1.395v25.966h6.193c2.137 0 3.768-.478 4.894-1.437 1.126-.958 2.064-2.382 2.816-4.27h.433l-2.513 7.058H54.219v-.436h.563zM136.858 44.628h8.533v.436h-.347c-.75 0-1.493.225-2.23.675-.738.452-1.264 1.127-1.581 2.026l-7.19 23.048c-.578 1.83-.896 2.92-.953 4.312h-.39l-8.836-24.397-6.583 20.085c-.548 1.801-.853 2.89-.91 4.312h-.388l-9.834-27.403c-.346-.872-.88-1.531-1.601-1.983-.723-.45-1.46-.675-2.21-.675h-.347v-.436h9.615v.436h-.389c-.607 0-1.06.197-1.364.588-.303.391-.455.762-.455 1.111s.044.668.13.96l6.583 21.216 8.056-25.008.39.044 8.533 24.093 5.804-20.39c.086-.32.13-.646.13-.98 0-.334-.145-.69-.433-1.068-.29-.376-.737-.566-1.342-.566h-.391v-.436zM173.977 45.107v3.66h-.433v-.654c0-.58-.203-1.081-.605-1.502-.405-.42-.912-.633-1.517-.633h-9.138v13.464h7.319a2.168 2.168 0 0 0 1.472-.653c.404-.408.608-.9.608-1.482v-.653h.432v6.882h-.432v-.653c0-.58-.197-1.074-.586-1.482a2.088 2.088 0 0 0-1.45-.653h-7.363v11.198c0 .756.273 1.402.822 1.939.548.537 1.197.804 1.95.804h.56v.438h-9.482v-.438h.561c.752 0 1.394-.267 1.928-.804a2.805 2.805 0 0 0 .844-1.94V47.548c0-.696-.281-1.285-.844-1.764a2.886 2.886 0 0 0-1.928-.718h-.52l-.041-.437h12.689c.895 0 1.87-.087 2.924-.26 1.053-.176 1.797-.35 2.23-.524v1.263zM180.127 74.69c.75 0 1.393-.267 1.928-.806a2.812 2.812 0 0 0 .844-1.937V47.765a2.737 2.737 0 0 0-.844-1.917 2.663 2.663 0 0 0-1.928-.784h-.563v-.436h9.485v.436h-.563a2.66 2.66 0 0 0-1.928.784 2.737 2.737 0 0 0-.844 1.917v24.182c0 .754.274 1.4.822 1.937.55.539 1.198.806 1.95.806h.563v.436h-9.485v-.436h.563zM203.126 45.979h-2.772v25.967c0 .755.266 1.4.802 1.94.533.536 1.19.804 1.97.804h.52l.043.435h-9.485v-.435h.563c.75 0 1.392-.26 1.928-.784.533-.523.814-1.161.843-1.917v-24.18a2.816 2.816 0 0 0-.843-1.94 2.626 2.626 0 0 0-1.928-.805h-.563v-.436h11.693c2.629 0 4.694.734 6.194 2.2 1.5 1.468 2.253 3.37 2.253 5.708s-.716 4.356-2.145 6.056c-1.428 1.699-3.17 2.55-5.218 2.55.433.202.945.6 1.537 1.197a15.49 15.49 0 0 1 1.581 1.852c2.482 3.572 4.1 5.772 4.852 6.6.75.829 1.284 1.393 1.601 1.7.317.304.664.603 1.04.892.376.292.75.523 1.126.698a6.076 6.076 0 0 0 2.686.609v.435h-2.383c-1.24 0-2.395-.223-3.465-.675-1.067-.45-1.869-.915-2.405-1.393-.533-.48-.994-.943-1.384-1.395-.39-.45-1.466-1.952-3.227-4.51-1.76-2.555-2.786-4.014-3.076-4.378a21.372 21.372 0 0 0-.91-1.068c-.924-.985-1.847-1.48-2.771-1.48v-.435c.231.028.534.042.91.042s.836-.014 1.385-.042c3.58-.089 5.832-1.598 6.757-4.532a5.7 5.7 0 0 0 .26-1.634v-.98c-.057-1.947-.563-3.515-1.515-4.705-.954-1.192-2.238-1.83-3.855-1.917-.694-.03-1.56-.044-2.6-.044M259.909 74.69h.693v.436h-9.399v-.392h.65c.49 0 .91-.188 1.256-.566.347-.378.49-.814.433-1.308l-1.95-21.914-9.096 20.346c-.807 1.773-1.298 2.643-1.47 3.834h-.435l-11.087-23.571-1.863 21.305c-.059.465.086.893.433 1.286.346.391.765.588 1.256.588h.65v.392h-8.403v-.436h.693c.807 0 1.508-.245 2.1-.74.593-.494.945-1.162 1.062-2.003l3.249-27.93h.433l12.084 26.273 11.825-26.272h.389l3.334 27.929c.116.84.477 1.509 1.084 2.003.606.495 1.3.74 2.079.74"/></g></g></svg>