<svg xmlns="http://www.w3.org/2000/svg" width="61" height="60" viewBox="0 0 61 60"><path fill="#8C1A1A" d="M60.128 41.444l.002-.04v-.01a.948.948 0 0 0-.004-.065l-.003-.033-.008-.057-.008-.04-.011-.044c-.005-.018-.009-.035-.015-.052l-.012-.034a.917.917 0 0 0-.023-.058l-.004-.01-10.28-22.615V15.42h.065a2.01 2.01 0 0 0 2.009-2.008v-.154a2 2 0 0 0-1.689-1.983l-16.972-2.74v-1.74a4.065 4.065 0 0 0 1.037-2.714A4.087 4.087 0 0 0 30.13 0a4.087 4.087 0 0 0-4.082 4.082c0 1.041.392 1.993 1.036 2.714v1.646l-16.982 2.83a2.002 2.002 0 0 0-1.679 1.982v.159a2.01 2.01 0 0 0 2.009 2.008h.065v2.965L.217 41.002l-.004.009a.995.995 0 0 0-.023.058l-.012.034c-.006.017-.01.034-.015.052l-.011.044-.008.04-.008.057-.003.033a1.026 1.026 0 0 0-.003.066v.009l.001.04.001.033c.061 3.998 5.017 7.12 11.337 7.12 6.32 0 11.275-3.122 11.336-7.12l.001-.032.002-.041v-.01a.948.948 0 0 0-.004-.065.166.166 0 0 0-.003-.032l-.008-.057-.008-.041-.01-.044-.015-.052-.013-.033a.917.917 0 0 0-.023-.059l-.003-.01-10.28-22.615V15.42h14.643v21.116a2.01 2.01 0 0 0-1.036 1.757v14.318l-6.157 1.924a3.032 3.032 0 0 0-2.137 2.906v1.586c0 .537.435.972.972.972h22.807a.972.972 0 0 0 .972-.972v-1.586a3.032 3.032 0 0 0-2.137-2.907l-6.156-1.923V38.294a2.01 2.01 0 0 0-1.037-1.757V15.421h14.644v2.965l-10.28 22.616-.004.009a.995.995 0 0 0-.023.058l-.013.034-.014.052-.011.044-.008.04-.008.058c-.002.01-.002.021-.003.032a1.026 1.026 0 0 0-.003.066v.049l.002.033c.06 3.998 5.017 7.12 11.336 7.12 6.32 0 11.276-3.122 11.337-7.12l.001-.033zm-48.66-20.5l8.858 19.488H2.611l8.858-19.487zm0 25.708c-4.5 0-8.383-1.876-9.225-4.276h18.452c-.843 2.4-4.726 4.276-9.226 4.276zm20.8-8.358v14.06H27.99v-14.06c0-.036.03-.065.065-.065h4.147c.036 0 .065.029.065.065zm-3.24-2.009V8.012a4.067 4.067 0 0 0 2.203 0v28.273h-2.203zM30.13 1.944a2.14 2.14 0 0 1 2.138 2.138A2.14 2.14 0 0 1 30.13 6.22a2.14 2.14 0 0 1-2.139-2.138 2.14 2.14 0 0 1 2.139-2.138zM10.432 13.477a.065.065 0 0 1-.065-.064v-.159c0-.032.023-.059.054-.064l16.663-2.777v3.064H10.432zm30.13 43.965v.614H19.698v-.614c0-.484.31-.907.773-1.051l6.697-2.093h5.923l6.698 2.093c.462.144.773.567.773 1.051zm-7.387-46.936l16.662 2.689a.065.065 0 0 1 .055.064v.154c0 .035-.03.064-.065.064H33.175v-2.971zM48.79 20.945l8.858 19.487H39.933l8.857-19.487zm0 25.707c-4.5 0-8.383-1.876-9.226-4.276h18.453c-.843 2.4-4.726 4.276-9.227 4.276z"/></svg>