<svg xmlns="http://www.w3.org/2000/svg" xmlns:xlink="http://www.w3.org/1999/xlink" viewBox="0 0 113.91 256"><defs><style>.a{fill:url(#a)}.b{fill:url(#b)}.c{fill:maroon}.d{mask:url(#d)}.e{fill:url(#e)}.f{mask:url(#f)}.g{fill:url(#g)}.h{fill:url(#i)}</style><linearGradient id="a" x1="56.84" y1="-1.82" x2="56.84" y2="211.48" gradientUnits="userSpaceOnUse"><stop offset="0" stop-color="#6d6e70"/><stop offset="1"/></linearGradient><linearGradient id="b" x1="56.84" y1="-2.51" x2="56.84" y2="210.8" xlink:href="#a"/><mask id="d" x="-.48" y="-.77" width="114.65" height="207.57" maskUnits="userSpaceOnUse"><path class="a" d="M-.48-.77h114.65V206.8H-.48z"/></mask><linearGradient id="e" x1="39.04" y1="-1.03" x2="39.04" y2="209.04" gradientUnits="userSpaceOnUse"><stop offset="0" stop-color="#8b1500"/><stop offset="1" stop-color="#ffaeaa"/></linearGradient><mask id="f" x="-.48" y="-1.46" width="114.65" height="207.57" maskUnits="userSpaceOnUse"><path class="b" d="M-.48-1.46h114.65v207.57H-.48z"/></mask><linearGradient id="g" x1="12.88" y1="16.3" x2="12.88" y2="210.31" xlink:href="#e"/><linearGradient id="i" x1="62.1" y1="-.94" x2="62.1" y2="191.46" xlink:href="#e"/></defs><title>logo_sharova_V</title><path d="M2 227.56a6.31 6.31 0 0 0-1.38 3.91 4.39 4.39 0 0 0 2.1 3.88 4.86 4.86 0 0 0 2.78.83 5.65 5.65 0 0 0 2.7-.61 4.44 4.44 0 0 0 2.42-3.75 2.65 2.65 0 0 0 0-.37 5 5 0 0 0-.55-2.13 6 6 0 0 0-1.77-2.1l-4.79-3.78A3.83 3.83 0 0 1 2 220.27 4.64 4.64 0 0 1 3.27 217a4.39 4.39 0 0 1 3.38-1.34 11.2 11.2 0 0 1 2.35.24h1l.05 3.27h-.23a2.53 2.53 0 0 0-.92-2 3.41 3.41 0 0 0-2.24-.73 3.07 3.07 0 0 0-3.15 3.18 2.86 2.86 0 0 0 1.17 2.33l4.92 3.88a6.92 6.92 0 0 1 2.93 5.59 5.48 5.48 0 0 1-1.94 4.2 6.41 6.41 0 0 1-4.47 1.52 6.93 6.93 0 0 1-3-.64 5.15 5.15 0 0 1-3-4 6 6 0 0 1-.12-1.07 6.11 6.11 0 0 1 .37-1.78 6.3 6.3 0 0 1 1.44-2.27zM26.22 234.41a1.36 1.36 0 0 0 1-.42 1.42 1.42 0 0 0 .44-1v-5.82h-9.2V233a1.31 1.31 0 0 0 .43 1 1.42 1.42 0 0 0 1 .4h.29v.22h-4.91v-.22h.29a1.39 1.39 0 0 0 1-.4 1.41 1.41 0 0 0 .44-1v-12.5a1.41 1.41 0 0 0-.44-1 1.39 1.39 0 0 0-1-.4h-.29v-.22h4.92v.22h-.29a1.38 1.38 0 0 0-1 .4 1.41 1.41 0 0 0-.44 1v6h9.2v-6a1.36 1.36 0 0 0-.72-1.21 1.51 1.51 0 0 0-.72-.18h-.29v-.22h4.93v.22h-.3a1.36 1.36 0 0 0-1 .42 1.44 1.44 0 0 0-.44 1V233a1.41 1.41 0 0 0 .44 1 1.38 1.38 0 0 0 1 .4h.29v.22h-4.92v-.22h.29zM48.66 234.41h.18v.22h-5.06v-.22H44a.84.84 0 0 0 .71-.3 1 1 0 0 0 .24-.57 1.7 1.7 0 0 0-.09-.54l-1.44-3.82h-6.09L35.82 233a1.67 1.67 0 0 0-.09.53.94.94 0 0 0 .24.56.84.84 0 0 0 .71.3h.2v.22h-4.52v-.22h.2a2 2 0 0 0 1.1-.36 2.58 2.58 0 0 0 .88-1.06l5.08-12.1a8.24 8.24 0 0 0 .83-2.32h.2l6 14.42a2.43 2.43 0 0 0 .85 1.06 2 2 0 0 0 1.16.38zM37.6 228.5h5.53l-2.7-7.22zM54.91 219.59h-1.44V233a1.36 1.36 0 0 0 .42 1 1.39 1.39 0 0 0 1 .42h.27v.22h-4.88v-.22h.29a1.39 1.39 0 0 0 1-.4 1.41 1.41 0 0 0 .44-1v-12.49a1.45 1.45 0 0 0-.44-1 1.37 1.37 0 0 0-1-.42h-.29v-.22h6.07a4.42 4.42 0 0 1 3.22 1.11 3.93 3.93 0 0 1 1.17 3 4.68 4.68 0 0 1-1.11 3.13 3.43 3.43 0 0 1-2.71 1.32 3.09 3.09 0 0 1 .8.62 8.06 8.06 0 0 1 .82 1q1.93 2.77 2.52 3.41t.83.88a6.56 6.56 0 0 0 .54.46 3 3 0 0 0 .58.36 3.16 3.16 0 0 0 1.39.31v.22h-1.23a4.6 4.6 0 0 1-1.8-.35 4.51 4.51 0 0 1-1.25-.72 8 8 0 0 1-.72-.72q-.3-.35-1.68-2.33t-1.6-2.26q-.23-.28-.47-.55a2 2 0 0 0-1.44-.76v-.22h1.19q2.79-.07 3.51-2.34a3 3 0 0 0 .13-.84V223a4 4 0 0 0-.79-2.43 2.63 2.63 0 0 0-2-1zM66.81 220.84a9.75 9.75 0 0 1 12.48 0 8.5 8.5 0 0 1 0 11.85 9.75 9.75 0 0 1-12.48 0 8.5 8.5 0 0 1 0-11.85zM68 232.21a7.08 7.08 0 0 0 10 0 8.74 8.74 0 0 0 0-10.88 7.09 7.09 0 0 0-10 0 8.74 8.74 0 0 0 0 10.88zM94.52 218.89H99v.22h-.2a2 2 0 0 0-1.1.35 2.36 2.36 0 0 0-.85 1l-5.42 12.12a8.22 8.22 0 0 0-.83 2.32h-.2l-6.3-14.37a2.32 2.32 0 0 0-.87-1.07 2.07 2.07 0 0 0-1.11-.35h-.17v-.22H87v.22h-.2a.84.84 0 0 0-.71.3.94.94 0 0 0-.24.56 1.37 1.37 0 0 0 .11.53l4.7 11.78 4.9-11.78a1.67 1.67 0 0 0 .09-.53.94.94 0 0 0-.24-.56.84.84 0 0 0-.71-.3h-.2v-.22zM112.89 234.41h.18v.22H108v-.22h.2a.84.84 0 0 0 .71-.3 1 1 0 0 0 .24-.57 1.7 1.7 0 0 0-.09-.54l-1.44-3.82h-6.07L100 233a1.67 1.67 0 0 0-.09.53.94.94 0 0 0 .24.56.84.84 0 0 0 .71.3h.2v.22h-4.47v-.22h.2a2 2 0 0 0 1.1-.36 2.58 2.58 0 0 0 .88-1.06l5.08-12.1a8.24 8.24 0 0 0 .83-2.32h.2l6 14.42a2.43 2.43 0 0 0 .85 1.06 2 2 0 0 0 1.16.38zm-11.07-5.91h5.53l-2.7-7.22zM.61 255.76a1.43 1.43 0 0 0 1.05-.44 1.52 1.52 0 0 0 .46-1.05v-13.08a1.52 1.52 0 0 0-.46-1.05 1.43 1.43 0 0 0-1.05-.44H.3v-.24h5.17v.24h-.31a1.5 1.5 0 0 0-1.51 1.49v14.07H7a4 4 0 0 0 2.67-.78 5.77 5.77 0 0 0 1.54-2.31h.24L10.1 256H.3v-.24h.31zM29.63 255.76h.19v.24H24.5v-.24h.21a.88.88 0 0 0 .74-.32 1 1 0 0 0 .25-.6 1.8 1.8 0 0 0-.09-.57l-1.51-4h-6.37l-1.58 4a1.75 1.75 0 0 0-.09.56 1 1 0 0 0 .25.59.88.88 0 0 0 .74.32h.21v.26h-4.75v-.24h.21a2.06 2.06 0 0 0 1.16-.38 2.71 2.71 0 0 0 .92-1.11l5.34-12.7a8.65 8.65 0 0 0 .87-2.43h.21l6.33 15.14a2.55 2.55 0 0 0 .9 1.11 2.09 2.09 0 0 0 1.18.37zM18 249.55h5.81L21 242zM45.35 239.47H50v.24h-.18a2.32 2.32 0 0 0-1.22.37 2 2 0 0 0-.86 1.1l-3.92 12.49a8.44 8.44 0 0 0-.52 2.33h-.21l-4.82-13.22-3.59 10.89a8.64 8.64 0 0 0-.5 2.34H34l-5.36-14.85a2.17 2.17 0 0 0-.87-1.07 2.26 2.26 0 0 0-1.2-.37h-.23v-.24h5.24v.24h-.21a.88.88 0 0 0-.74.32 1 1 0 0 0-.25.6 1.79 1.79 0 0 0 .07.52L34 252.65l4.39-13.55h.21l4.65 13.06 3.16-11.05a2 2 0 0 0 .07-.53 1 1 0 0 0-.18-.58.87.87 0 0 0-.73-.31h-.22v-.24zM65.59 239.73v2h-.24v-.35a1.13 1.13 0 0 0-.33-.81 1.1 1.1 0 0 0-.83-.34h-5v7.3h4a1.18 1.18 0 0 0 .8-.35 1.09 1.09 0 0 0 .33-.8V246h.24v3.73h-.22v-.35a1.11 1.11 0 0 0-.32-.8 1.14 1.14 0 0 0-.79-.35h-4v6.07a1.41 1.41 0 0 0 .45 1.05 1.47 1.47 0 0 0 1.06.44H61v.21h-5.14v-.24h.31a1.43 1.43 0 0 0 1.05-.44 1.52 1.52 0 0 0 .46-1.05v-13.22a1.21 1.21 0 0 0-.46-1 1.58 1.58 0 0 0-1.05-.39h-.29v-.24h6.92a9.89 9.89 0 0 0 1.59-.14 6.52 6.52 0 0 0 1.22-.28v.68zM68.94 255.76a1.43 1.43 0 0 0 1.05-.44 1.52 1.52 0 0 0 .46-1.05v-13.1a1.48 1.48 0 0 0-.46-1 1.45 1.45 0 0 0-1.05-.43h-.3v-.24h5.17v.24h-.31a1.45 1.45 0 0 0-1.05.43 1.48 1.48 0 0 0-.46 1v13.11a1.41 1.41 0 0 0 .45 1.05 1.47 1.47 0 0 0 1.06.44h.31v.23h-5.17v-.24h.31zM81.48 240.2H80v14.07a1.43 1.43 0 0 0 .44 1.05 1.46 1.46 0 0 0 1.07.44h.28v.24h-5.17v-.24h.31a1.45 1.45 0 0 0 1.05-.42 1.48 1.48 0 0 0 .46-1v-13.15a1.52 1.52 0 0 0-.46-1.05 1.43 1.43 0 0 0-1.05-.44h-.31v-.24H83a4.64 4.64 0 0 1 3.38 1.19 4.12 4.12 0 0 1 1.23 3.09 4.92 4.92 0 0 1-1.18 3.26 3.6 3.6 0 0 1-2.85 1.38 3.22 3.22 0 0 1 .84.65 8.43 8.43 0 0 1 .86 1q2 2.9 2.64 3.58t.87.92a6.84 6.84 0 0 0 .57.48 3.23 3.23 0 0 0 .61.38 3.32 3.32 0 0 0 1.46.33v.28h-1.3a4.83 4.83 0 0 1-1.89-.37 4.76 4.76 0 0 1-1.31-.76 8.47 8.47 0 0 1-.76-.76q-.32-.37-1.76-2.44t-1.68-2.37q-.24-.29-.5-.58a2.13 2.13 0 0 0-1.51-.8v-.24h1.26q2.93-.07 3.68-2.46a3.07 3.07 0 0 0 .14-.89v-.53a4.15 4.15 0 0 0-.83-2.55 2.76 2.76 0 0 0-2.1-1zM112.44 255.76h.38v.24h-5.12v-.21h.3a.9.9 0 0 0 .68-.31.85.85 0 0 0 .24-.71l-1.06-11.88-5 11a7.79 7.79 0 0 0-.8 2.08h-.24l-6-12.77-1 11.55a.86.86 0 0 0 .24.7.88.88 0 0 0 .68.32h.35v.23h-4.55v-.24h.38a1.74 1.74 0 0 0 1.15-.4 1.65 1.65 0 0 0 .58-1.09l1.77-15.14h.24l6.59 14.24 6.45-14.24h.21l1.82 15.14a1.62 1.62 0 0 0 .59 1.09 1.75 1.75 0 0 0 1.12.4z"/><path class="c" d="M113.64 127.72c.59 2.31 0-127.72 0-127.72S67.15.16 58.45.16 42.45 3 36.59 8.82 27.25 22 27.8 31.07c.53 8.69 3.78 16.61 11.38 22.63C51.12 63.16 75.07 82 87 91.46c14.17 11.19 23 22.16 26.61 36.26"/><path class="c" d="M20.55 184.07a47.26 47.26 0 0 0 27 8c10.09 0 18.79-2.08 26.25-5.95 11.84-6.14 21.73-19.41 23.54-36.47 1-9.5-1.51-16.9-5-24.31s-9.34-14.2-17.21-20.42c-11.66-9.16-34.89-27.58-46.56-36.73-10.15-8-16.68-18.25-17.93-30.78-1.28-12.78 4-23.23 12.16-31.94A39.68 39.68 0 0 1 29.07 0H.19S.12 132.68.12 146.3q0 24.32 20.43 37.77z"/><path class="c" d="M113.65 162.22V206H.14L0 173q7.59 14.61 23.66 22.21a54.63 54.63 0 0 0 13.09 4.48c8.22 1.58 21.35 2.94 33.48 0 10.11-2.45 19.18-6.5 26.38-13 8.71-7.88 14.38-15.05 17-24.43"/><g class="d"><path class="e" d="M12.22 177.38c10.53 9.28 14.43 9.85 19.26 12.12 21.21-24.92 34.6-47.26 46.42-82.31-23.49-18.62-45.79-34.92-55.71-44.64C20 60.38 6.7 45.35 11.55 25.47 14.85 12 25.76 1.73 29.07 0H.19v149c0 12.5 7.68 24.55 12.03 28.38z"/></g><g class="f"><path class="g" d="M10.55 186.05c-4.73-3.94-6.42-7.47-10.55-13.76L.14 206h15.55c4.14-4.07 6.15-6.11 10.06-10.59-4.17-1.17-10.48-5.41-15.2-9.36z"/></g><g class="d"><path class="h" d="M61.46.24c-15.57-.24-22 4.67-28.71 13.1s-6.39 24.37 0 33.51C38.87 55.55 63 71.67 83.87 89a224.36 224.36 0 0 0 6.35-25.56A306.74 306.74 0 0 0 96.38 0z"/></g></svg>