<svg xmlns="http://www.w3.org/2000/svg" xmlns:xlink="http://www.w3.org/1999/xlink" width="128" height="233" viewBox="0 0 128 233"><defs><linearGradient id="b" x1="50%" x2="50%" y1="0%" y2="92.774%"><stop offset="0%" stop-color="#D3C39E" stop-opacity="0"/><stop offset="100%" stop-color="#D3C39E"/></linearGradient><path id="a" d="M14.691 199.672c-4.875-4.307-13.484-17.835-13.484-31.874V.433h32.369c-3.713 1.94-15.939 13.423-19.634 28.606-5.43 22.331 9.446 39.214 11.924 41.647 11.12 10.918 36.109 29.225 62.434 50.148-13.248 39.374-28.252 64.47-52.021 92.456-5.415-2.553-9.787-3.198-21.588-13.618zm-1.872 10.513c5.289 4.421 12.36 9.197 17.038 10.557-4.375 5.031-6.634 7.326-11.27 11.898-10.137-.43-17.38.198-17.38.198L1 194.725c4.633 7.065 6.524 11.032 11.819 15.46zM69.879.7h39.124c.18 23.121-2.005 46.754-6.907 70.953-2.736 13.508-4.07 18.752-7.111 28.709C71.564 80.938 44.558 62.82 37.729 53.058c-7.186-10.266-7.638-28.05-.027-37.644C45.221 5.941 52.43.433 69.88.7z"/></defs><g fill="none" fill-rule="evenodd"><path fill="#D3C39E" d="M127.354 143.894c.66 2.592 0-143.217 0-143.217S75.253.605 65.5.605c-9.76 0-17.926 3.244-24.494 9.731-6.572 6.491-10.473 14.838-9.853 24.987.593 9.759 4.234 18.661 12.753 25.425 13.386 10.627 40.22 31.808 53.624 42.417 15.876 12.567 25.804 24.888 29.825 40.729"/><path fill="#D3C39E" d="M23.033 207.18c8.888 6.002 18.987 9.008 30.29 9.008 11.306 0 21.057-2.336 29.423-6.683 13.27-6.893 24.357-21.8 26.376-40.966 1.127-10.668-1.69-18.982-5.651-27.311-3.962-8.326-10.401-15.964-19.277-22.953-13.062-10.29-39.103-30.98-52.174-41.258-11.375-8.944-18.693-20.505-20.098-34.574-1.435-14.351 4.537-26.098 13.622-35.88a44.367 44.367 0 0 1 7.03-6.128H0S.133 149.464.133 164.76c0 18.208 7.633 32.349 22.9 42.42"/><path fill="#D3C39E" d="M127.356 182.641v48.763L.001 232.837v-38.113c5.67 10.94 14.489 19.235 26.511 24.951 4.594 2.18 9.445 4.019 14.668 5.025 9.212 1.775 23.928 3.304 37.518 0 11.324-2.751 21.494-7.305 29.558-14.615 9.76-8.849 16.11-16.907 19.1-27.444"/><g transform="translate(-1)"><use fill="#F7EEE1" xlink:href="#a"/><use fill="url(#b)" xlink:href="#a"/></g></g></svg>