<svg xmlns="http://www.w3.org/2000/svg" xmlns:xlink="http://www.w3.org/1999/xlink" width="341" height="347" viewBox="0 0 341 347"><defs><circle id="b" cx="172" cy="164" r="158"/><filter id="a" width="114.9%" height="115.8%" x="-7.4%" y="-4%" filterUnits="objectBoundingBox"><feOffset dy="14" in="SourceAlpha" result="shadowOffsetOuter1"/><feGaussianBlur in="shadowOffsetOuter1" result="shadowBlurOuter1" stdDeviation="5.5"/><feColorMatrix in="shadowBlurOuter1" values="0 0 0 0 0.127471301 0 0 0 0 0.11784367 0 0 0 0 0.0764933429 0 0 0 0.199275362 0"/></filter><linearGradient id="d" x1="39.835%" x2="77.288%" y1="30.959%" y2="100%"><stop offset="0%" stop-color="#D3C39E" stop-opacity="0"/><stop offset="100%" stop-color="#D3C39E"/></linearGradient><circle id="c" cx="158" cy="158" r="158"/><text id="f" fill="#D3C39E" font-family=".SFNSDisplay-Bold, .SF NS Display" font-size="36" font-weight="bold"><tspan x="44.639" y="147">Avvo Clients&apos; </tspan> <tspan x="36.131" y="190">Choice Award </tspan> <tspan x="110.715" y="233">2016</tspan></text><filter id="e" width="187.5%" height="103.1%" x="-.7%" y="-1.6%" filterUnits="objectBoundingBox"><feGaussianBlur in="SourceAlpha" result="shadowBlurInner1" stdDeviation="1.5"/><feOffset dy="1" in="shadowBlurInner1" result="shadowOffsetInner1"/><feComposite in="shadowOffsetInner1" in2="SourceAlpha" k2="-1" k3="1" operator="arithmetic" result="shadowInnerInner1"/><feColorMatrix in="shadowInnerInner1" values="0 0 0 0 0 0 0 0 0 0 0 0 0 0 0 0 0 0 0.143172554 0"/></filter><filter id="g" width="187.5%" height="103.1%" x="-.7%" y="-1.6%" filterUnits="objectBoundingBox"><feGaussianBlur in="SourceAlpha" result="shadowBlurInner1" stdDeviation="1.5"/><feOffset dy="1" in="shadowBlurInner1" result="shadowOffsetInner1"/><feComposite in="shadowOffsetInner1" in2="SourceAlpha" k2="-1" k3="1" operator="arithmetic" result="shadowInnerInner1"/><feColorMatrix in="shadowInnerInner1" values="0 0 0 0 0 0 0 0 0 0 0 0 0 0 0 0 0 0 0.143172554 0"/></filter><path id="h" d="M151 88.956l-20.572 10.36 3.495-22.767-16.21-16.365 22.733-3.71L151 36l10.554 20.474 22.733 3.71-16.21 16.365 3.495 22.767z"/><filter id="i" width="105.7%" height="105.7%" x="-2.9%" y="-2.9%" filterUnits="objectBoundingBox"><feGaussianBlur in="SourceAlpha" result="shadowBlurInner1" stdDeviation="1.5"/><feOffset dy="1" in="shadowBlurInner1" result="shadowOffsetInner1"/><feComposite in="shadowOffsetInner1" in2="SourceAlpha" k2="-1" k3="1" operator="arithmetic" result="shadowInnerInner1"/><feColorMatrix in="shadowInnerInner1" values="0 0 0 0 0 0 0 0 0 0 0 0 0 0 0 0 0 0 0.111554574 0"/></filter><circle id="j" cx="158" cy="158" r="158"/></defs><g fill="none" fill-rule="evenodd"><use fill="#000" filter="url(#a)" xlink:href="#b"/><use fill="#D3C39E" xlink:href="#b"/><use fill="#F7EEE1" xlink:href="#c"/><use fill="url(#d)" xlink:href="#c"/><circle cx="158.5" cy="158.5" r="134.5" stroke="#D3C39E" stroke-width="3"/><g fill="#D3C39E"><use filter="url(#e)" xlink:href="#f"/><use filter="url(#g)" xlink:href="#f"/></g><use fill="#D3C39E" xlink:href="#h"/><use fill="#000" filter="url(#i)" xlink:href="#h"/><path fill="#F7EEE1" d="M151.1 83.75l-14.277 7.189 2.426-15.8L128 63.783l15.776-2.575L151.1 47l7.324 14.208 15.776 2.575-11.25 11.356 2.427 15.8z"/><mask id="k" fill="#fff"><use xlink:href="#j"/></mask><rect width="110" height="353.258" x="104.786" y="-21.115" fill="#FFF" mask="url(#k)" opacity=".249" rx="24" transform="rotate(45 159.786 155.514)"/></g></svg>