<svg xmlns="http://www.w3.org/2000/svg" width="177" height="131" viewBox="0 0 177 131"><g fill="#FFF" fill-rule="evenodd" opacity=".2"><path d="M111.697 90.058c.256 6.705 3.104 12.911 8.024 17.473 4.917 4.562 11.315 6.941 18.018 6.677 6.7-.255 12.901-3.106 17.46-8.03 4.556-4.921 6.927-11.326 6.67-18.034-.256-6.705-3.104-12.912-8.023-17.473-4.919-4.56-11.305-6.938-18.018-6.676-13.833.526-24.657 12.218-24.13 26.063m25.058 27.51c-7.186 0-14.004-2.67-19.305-7.585-5.574-5.169-8.8-12.199-9.091-19.798-.596-15.686 11.668-28.934 27.34-29.53 7.588-.284 14.842 2.396 20.415 7.566 5.573 5.167 8.8 12.198 9.09 19.796.29 7.6-2.393 14.855-7.559 20.433-5.162 5.578-12.188 8.808-19.78 9.099-.37.013-.74.02-1.11.02m-10.017-74.288a.847.847 0 0 0-.31.08l-13.065 5.32c-.266.103-.37.432-.274.773l1.898 6.654c4.618-3.06 9.828-5.043 15.543-5.917l-3.411-6.547c-.119-.246-.21-.363-.381-.363zm-13.642 18.361l-3.218-11.27c-.574-2.016.394-4.078 2.253-4.797l13.03-5.307c1.993-.82 4.03-.048 4.946 1.889l5.64 10.823-2.468.237c-6.893.66-13.032 3-18.24 6.95l-1.943 1.475z"/><path d="M132.402 31.028c-.277 0-.566.057-.863.185L101.912 43.9c-1.1.559-1.355 1.045-.88 3.317l5.088 22.03-.364.584a36.385 36.385 0 0 0-5.458 20.662c.37 9.755 4.514 18.78 11.669 25.416 7.152 6.634 16.484 10.096 26.207 9.71 20.117-.767 35.862-17.773 35.097-37.908-.61-15.997-10.315-28.884-24.902-33.315l-.974 5.853c-.487 1.688-2.09 4.489-5.087 4.317l.202-3.336c.927.03 1.535-1.504 1.656-1.844l1.12-6.813-10.511-19.975c-.372-.692-1.277-1.57-2.373-1.57m4.345 97.961c-10.071 0-19.623-3.741-27.051-10.629-7.807-7.242-12.332-17.093-12.737-27.738-.294-7.756 1.64-15.332 5.6-21.96l-4.787-20.726c-.381-1.82-1.079-5.143 2.733-7.063l29.707-12.725c3.125-1.367 6.204.458 7.51 2.877l10.436 19.835c16.383 4.448 27.78 19.111 28.449 36.724.836 21.977-16.347 40.538-38.306 41.375-.52.02-1.038.03-1.554.03"/><path d="M147.074 127.663l-.883-3.223a4.057 4.057 0 1 0-2.145-7.827l-.885-3.223c3.932-1.078 8.007 1.243 9.087 5.178 1.079 3.935-1.242 8.016-5.174 9.095"/><path d="M143.83 120.26h-.027a.703.703 0 0 0-.675.73.711.711 0 0 0 .728.675.703.703 0 0 0-.026-1.405m-.002 3.342a2.643 2.643 0 0 1-2.635-2.54 2.641 2.641 0 0 1 2.536-2.737c1.411-.039 2.678 1.08 2.737 2.536a2.644 2.644 0 0 1-2.536 2.739c-.034.002-.067.002-.102.002M39.804 65.472c-5.55 0-10.909 1.832-15.36 5.294-5.293 4.12-8.667 10.058-9.5 16.717-1.716 13.747 8.06 26.331 21.795 28.05 13.744 1.71 26.308-8.067 28.027-21.81.832-6.661-.976-13.247-5.092-18.544-4.117-5.299-10.048-8.676-16.703-9.508a25.606 25.606 0 0 0-3.167-.199m.07 53.6c-1.172 0-2.357-.073-3.55-.223-15.562-1.948-26.64-16.205-24.693-31.78.944-7.547 4.765-14.273 10.764-18.94 5.998-4.669 13.45-6.719 20.992-5.775 7.538.944 14.259 4.771 18.922 10.773 4.665 6.002 6.713 13.465 5.77 21.01-1.798 14.38-14.082 24.934-28.205 24.934m9.565-66.694c5.616 1.363 10.637 3.79 14.974 7.237l2.466-6.465c.125-.333.05-.668-.178-.779l-12.58-6.44c-.383-.199-.513-.132-.685.164l-3.997 6.283zM65.822 65.29l-1.81-1.636c-4.85-4.386-10.763-7.247-17.575-8.502l-2.438-.447 6.587-10.352c1.043-1.793 3.142-2.39 5.062-1.396l12.545 6.424c1.763.86 2.551 2.998 1.805 4.958L65.822 65.29z"/><path d="M31.304 55.025C16.389 58.18 5.61 70.18 3.624 86.065c-2.5 19.995 11.72 38.298 31.699 40.8 9.678 1.207 19.247-1.423 26.945-7.413 7.7-5.993 12.607-14.627 13.818-24.313a36.4 36.4 0 0 0-3.657-21.057l-.312-.615 6.977-21.54c.66-2.19.446-2.696-.693-3.4L50.081 33.39c-1.42-.77-2.814.27-3.365 1.107L34.534 53.474l.528 6.883c.094.346.578 1.96 1.491 1.983l-.087 3.34c-2.983-.076-4.356-3.016-4.696-4.74l-.027-.197-.44-5.718zm8.58 75.467c-1.645 0-3.303-.102-4.976-.313C13.104 127.45-2.417 107.474.311 85.651 2.497 68.162 15.115 54.537 31.82 51.519l12.098-18.844c1.519-2.311 4.748-3.865 7.75-2.227l28.398 15.184c3.722 2.294 2.742 5.546 2.214 7.294l-6.563 20.267a39.737 39.737 0 0 1 3.683 22.36c-2.52 20.15-19.73 34.937-39.516 34.939z"/><path d="M26.279 128.132c-3.825-1.416-5.786-5.68-4.371-9.508 1.414-3.827 5.673-5.79 9.5-4.375l-1.16 3.135a4.059 4.059 0 0 0-5.208 2.398c-.777 2.1.3 4.44 2.396 5.215l-1.157 3.135z"/><path d="M30.785 121.822v.002-.002zm-.696-.789a.703.703 0 0 0-.087 1.4.683.683 0 0 0 .518-.143.712.712 0 0 0 .265-.468.71.71 0 0 0-.142-.518.712.712 0 0 0-.554-.27zm0 3.342a2.642 2.642 0 0 1-1.62-4.724 2.612 2.612 0 0 1 1.949-.534 2.631 2.631 0 0 1 1.753.999 2.63 2.63 0 0 1 .534 1.947 2.646 2.646 0 0 1-2.616 2.312zm44.793-97.533a.931.931 0 0 0-.573.196l-8.423 6.627a.927.927 0 0 0-.147 1.288l1.398 1.78c.205.26.477.327.622.344.14.018.405.012.642-.179l8.463-6.644a.92.92 0 0 0 .145-1.271l-1.412-1.797a.888.888 0 0 0-.715-.344m-7.009 13.584c-.162 0-.326-.01-.49-.029a4.235 4.235 0 0 1-2.87-1.596l-1.407-1.79a4.265 4.265 0 0 1-.871-3.136 4.188 4.188 0 0 1 1.596-2.844l8.42-6.625c1.87-1.45 4.544-1.123 5.977.722l1.412 1.796c1.433 1.846 1.102 4.52-.726 5.97l-.658.502-7.78 6.12a4.15 4.15 0 0 1-2.603.91m46.179-17.203l1.362 2.37c3.601-4.442 2.418-10.503 1.665-13.095-1.039-3.586-3.258-6.393-6.25-7.905-3.23-1.633-7.104-1.698-11.203-.184-.44.195-.893.68-.733 1.158.035.107.149.205.3.276.313.142.71.145 1.041.006 2.52-1.198 5.53-1.321 8.194-.312 2.448.926 4.345 2.719 5.343 5.05 1.585 3.662 2.494 8.966.28 12.636zm.556 7.665l-4.57-7.944.758-.896c1.953-2.308 1.322-6.873-.09-10.136l-.002-.005c-.64-1.49-1.867-2.644-3.458-3.245a7.254 7.254 0 0 0-5.646.235c-1.244.53-2.638.513-3.792-.015-1.022-.466-1.761-1.271-2.085-2.266-.703-2.088.412-4.328 2.658-5.307 5.012-1.85 9.934-1.73 13.954.301 3.829 1.935 6.652 5.47 7.95 9.957 1.021 3.515 2.659 12.309-4.151 18.037l-1.526 1.284z"/><path d="M75.418 35.634c3.067 1.75 7.215 2.503 11.225.183.44-.25.771-.832.57-1.246-.226-.461-.78-.533-1.193-.333l-.157.067c-2.903 1.064-5.858.97-8.446-.246l-1.999 1.575zm5.849 4.986c-3.37 0-6.772-1.213-9.714-3.593l-1.628-1.317 7.2-5.676.993.612c1.91 1.176 4.228 1.37 6.53.546 2.097-.966 4.578-.119 5.566 1.915.954 1.958.094 4.477-1.915 5.613a13.986 13.986 0 0 1-7.032 1.9z"/><path d="M82.196 12.349c.984 0 1.915.16 2.804.481 3.628 1.308 5.73 5.1 7.46 9.002 3.467 7.812 9.566 8.717 13.22 8.463l-1.433-2.49c-5.472-.09-8.175-4.657-10.29-8.991-5.366-11.055-13.811-9.663-17.195-8.552-5.385 1.783-10.171 7.103-7.784 16.721l2.114-1.664c-1.019-4.971.875-9.247 5.097-11.328 2.206-1.096 4.194-1.642 6.007-1.642m22.436 21.337c-5.648 0-11.775-2.727-15.225-10.5-1.429-3.222-3.09-6.329-5.541-7.213-1.623-.588-3.65-.254-6.198 1.015-4.5 2.217-3.506 7.081-3.093 8.52l.308 1.08-7.448 5.861-.848-2.025a15.272 15.272 0 0 1-.62-1.765C62.48 16.276 69.04 9.298 75.718 7.09c3.292-1.085 14.54-3.536 21.244 10.263 2.69 5.514 4.811 7.36 8.089 7.085l1.058-.09 4.809 8.351-2.19.512a17.973 17.973 0 0 1-4.095.476"/><path d="M108.683 21.55a.926.926 0 0 0-.462.123l-1.952 1.143a.893.893 0 0 0-.424.553.908.908 0 0 0 .09.692l5.361 9.294a.917.917 0 0 0 1.252.334l1.952-1.141a.92.92 0 0 0 .342-1.258l-5.35-9.278a.933.933 0 0 0-.809-.461m3.405 15.599a4.228 4.228 0 0 1-3.69-2.134l-5.35-9.274a4.223 4.223 0 0 1-.429-3.237 4.2 4.2 0 0 1 1.974-2.58l1.96-1.148c2.05-1.166 4.655-.461 5.827 1.556l5.36 9.294c.565.996.71 2.139.418 3.233a4.187 4.187 0 0 1-1.992 2.582l-1.95 1.143a4.296 4.296 0 0 1-2.128.565"/></g></svg>