<svg xmlns="http://www.w3.org/2000/svg" xmlns:xlink="http://www.w3.org/1999/xlink" width="152" height="124" viewBox="0 0 152 124"><defs><path id="a" d="M97.895 99.293V.488H.141v98.805h97.754z"/><path id="c" d="M44.038.47H.089v31.9h43.949V.47z"/></defs><g fill="none" fill-rule="evenodd" opacity=".2"><path fill="#4A4A4A" d="M57.043 83.415l2.063 1.709 3.858-7.138 2.29 1.579c-.251-1.73-.313-3.412-.313-5.466 0-9.028 3.2-17.699 9.037-24.57l-.074-.076c-.305-.304-.607-.61-.916-.907-.53-.432-1.171-.922-1.81-1.414l-.523-.403c-1.382-1.122-2.515-1.934-3.715-2.654-7.001 8.225-10.846 18.85-10.846 30.024 0 3.11.32 6.24.949 9.316zm2.992 6.485l-5.79-4.795-.113-.521a49.665 49.665 0 0 1-1.127-10.485c0-12.227 4.331-23.85 12.194-32.73l.92-1.036.785.557c.414.012.748.028 1.111.236 1.531.88 2.895 1.834 4.56 3.188l.485.373a72.84 72.84 0 0 1 1.984 1.56c.412.391.732.712 1.05 1.033l.411.424c.227.282.456.566.69.842l.884 1.034-.917 1.005A34.809 34.809 0 0 0 68.03 74.1c0 3.299.159 5.417 1.06 8.537l1.204 4.155-6.248-4.31-4.012 7.42z"/><g transform="translate(54.067 24.208)"><mask id="b" fill="#fff"><use xlink:href="#a"/></mask><path fill="#4A4A4A" d="M7.848 72.364c8.104 14.654 23.462 23.844 40.569 23.844 25.578 0 46.39-20.778 46.39-46.318 0-25.538-20.812-46.317-46.39-46.317a46.16 46.16 0 0 0-23.635 6.5c.864.681 1.77 1.443 2.804 2.353a4.3 4.3 0 0 1 .582.495c.391.401.799.767 1.207 1.134a34.1 34.1 0 0 1 1.175 1.093c.37.296.725.6 1.061.91a38.14 38.14 0 0 1 17.35-4.195c21 0 38.086 17.059 38.086 38.027 0 20.969-17.087 38.028-38.086 38.028-14.323 0-27.242-7.863-33.826-20.554L11.67 65.27l-3.822 7.093zm40.569 26.929c-20.352 0-38.386-12.198-45.946-31.075L.14 62.405l6.552 5.591 3.795-7.045 7.003 4.232.2.396c5.99 11.877 17.97 19.254 31.27 19.254 19.297 0 34.997-15.675 34.997-34.943 0-19.267-15.7-34.942-34.997-34.942a35.043 35.043 0 0 0-16.875 4.354l-1.043.574-.822-.861a18.454 18.454 0 0 0-1.738-1.576c-.457-.446-.818-.77-1.178-1.094-.455-.409-.909-.82-1.343-1.263a1.245 1.245 0 0 0-.185-.154l-.167-.128a59.591 59.591 0 0 0-3.283-2.724c-.369-.282-.76-.541-1.154-.798l-1.965-1.283 1.958-1.294C29.293 3.328 38.716.488 48.417.488c27.282 0 49.48 22.162 49.48 49.402 0 27.242-22.198 49.403-49.48 49.403z" mask="url(#b)"/></g><path fill="#4A4A4A" d="M49.403 27.776c-10.824 0-21.211 3.742-29.627 10.747C10.26 46.447 4.402 57.595 3.284 69.917c-1.12 12.322 2.635 24.34 10.57 33.843 7.935 9.502 19.102 15.351 31.442 16.466 9.576.87 19.37-1.385 27.829-6.362-2.038-1.485-3.865-2.997-6.233-5.462a43.952 43.952 0 0 1-.643-.695c-6.598 3.339-13.915 4.835-20.745 4.215-20.914-1.893-36.388-20.423-34.493-41.306 1.897-20.883 20.45-36.331 41.37-34.438 14.265 1.29 26.42 10.286 31.828 23.518l3.264 2.398 4.447-6.72C85.174 40.049 70.707 29.51 53.671 27.969a47.786 47.786 0 0 0-4.268-.193m-.075 95.717a47.7 47.7 0 0 1-4.31-.193c-13.163-1.192-25.074-7.43-33.537-17.564C3.018 95.6-.987 82.78.207 69.639c1.192-13.142 7.44-25.034 17.592-33.485 10.15-8.45 22.989-12.448 36.152-11.257 20.267 1.835 37.127 15.608 42.95 35.089l1.794 6.001-6.02-6.16-4.418 6.674-6.591-4.845-.164-.412c-4.89-12.368-16.155-20.796-29.4-21.994-19.23-1.748-36.271 12.456-38.014 31.645-1.742 19.188 12.477 36.215 31.696 37.955 6.598.6 13.717-.97 20.057-4.413l1.023-.557.817.83c.2.202.493.524.79.851.234.258.469.517.653.71 2.424 2.521 4.175 3.928 6.38 5.503.3.224.502.35.672.458.262.167.479.307.738.523l1.604 1.33-1.744 1.144c-8.233 5.394-17.838 8.264-27.446 8.264"/><path fill="#4A4A4A" d="M77.87 98.215l.052.062c.375.452.763.919 1.11 1.249a15.646 15.646 0 0 0 1.882 1.545c1.087.835 2.136 1.604 3.193 2.356.307.222.585.418.853.595 6.078-7.286 9.874-16.379 10.725-25.742a46.518 46.518 0 0 0-.104-9.364l-1.9-1.886-4.487 6.76-2.138-1.78c.093 1.746.003 3.424-.182 5.472-.672 7.416-3.779 14.557-9.003 20.733zm7.794 9.701l-1.066-.536c-.8-.403-1.495-.87-2.294-1.449a109.802 109.802 0 0 1-3.22-2.375 18.482 18.482 0 0 1-2.179-1.792c-.482-.458-.93-.998-1.362-1.52-.285-.342-.564-.681-.84-.97l-.982-1.033.955-1.06c5.317-5.907 8.472-12.815 9.12-19.978.299-3.285.332-5.409-.284-8.597l-.82-4.246 5.831 4.855 4.666-7.027 5.332 5.297.067.529a49.76 49.76 0 0 1 .174 10.545c-.947 10.428-5.319 20.535-12.309 28.463l-.789.894z"/><g transform="translate(100.41 .111)"><mask id="d" fill="#fff"><use xlink:href="#c"/></mask><path fill="#4A4A4A" d="M23.928 32.37l-1.472-2.713 17.681-9.567-3.582-8.835-24.613-7.422-7.884 5.05 8.372 17.415-2.785 1.334L.09 7.76 11.473.469l27.391 8.26 5.174 12.758z" mask="url(#d)"/></g><path fill="#4A4A4A" d="M116.688 29.034l-8.138-18.612 10.365-7.116 1.75 2.541-8.263 5.675L119.52 27.8z"/></g></svg>