<svg xmlns="http://www.w3.org/2000/svg" xmlns:xlink="http://www.w3.org/1999/xlink" width="108" height="123" viewBox="0 0 108 123"><defs><path id="a" d="M107.709.526v65.623H0V.526h107.709z"/></defs><g fill="none" fill-rule="evenodd" opacity=".199"><path fill="#4A4A4A" d="M53.79 0v2.678V0c-.82 0-1.65.05-2.463.151-8.995 1.113-15.557 4.292-19.502 9.451-3.467 4.533-4.931 10.626-4.371 18.148-1.094.43-2.049 1.32-2.734 2.577a8.865 8.865 0 0 0-1.05 4.107c0 5.157 3.615 11.053 8.978 12.301 1.28 2.286 4.135 7.053 6.952 9.46 5.394 4.612 11.525 5.302 14.7 5.302 2.862-.001 8.562-.777 14.58-5.975 3.67-3.17 5.414-6.38 6.24-8.804a.63.63 0 0 0 .054-.018c2.503-.815 8.365-2.723 9.145-11.031.317-3.377-.162-5.638-1.508-7.112a4.612 4.612 0 0 0-2.755-1.455c.538-3.936.365-7.714-1.095-12.617-.915-3.07-3.344-11.22-13.253-11.222-.367 0-.743.012-1.126.035C61.76 1.218 57.822 0 53.79 0m0 2.678c4.229 0 7.89 1.543 9.946 3.383a17.21 17.21 0 0 1 1.972-.12c7.878.002 9.744 6.174 10.676 9.306 1.795 6.02 1.475 10.158.262 15.443 0 0 1.36-.964 2.67-.964 1.407 0 2.758 1.108 2.329 5.694-.833 8.866-8.487 8.33-8.787 9.495-.604 2.352-2.146 5.48-5.738 8.584-4.895 4.227-9.617 5.318-12.82 5.32-3.19 0-8.443-.802-12.951-4.656-3.282-2.805-6.976-9.877-6.976-9.877-4.75-.265-8.017-5.714-8.017-9.852 0-1.805 1.047-4.303 2.659-4.303.452 0 .95.196 1.48.662C28.148 14.738 34.321 4.952 51.657 2.81c.724-.09 1.436-.13 2.133-.13"/><path fill="#4A4A4A" d="M34.564 31.649c-3.597 0-5.77-1.241-5.925-1.334l1.369-2.303c.219.123 5.588 3.077 13.809-1.998 2.786-1.72 4.76-3.587 6.67-5.394 3.51-3.32 6.54-6.186 12.78-6.189h.006c5.11 0 9.502 2.657 12.702 7.686 2.343 3.683 3.219 7.326 3.255 7.48l-2.616.614c-.03-.132-3.236-13.102-13.341-13.102h-.005c-5.17.002-7.586 2.289-10.932 5.454-1.914 1.81-4.085 3.863-7.106 5.729-4.227 2.61-7.876 3.357-10.666 3.357"/><g transform="translate(0 56.674)"><mask id="b" fill="#fff"><use xlink:href="#a"/></mask><path fill="#4A4A4A" d="M69.356 63.464H92.89c4.125 0 7.426-1.181 9.544-3.416 1.824-1.927 2.738-4.619 2.569-7.582-.495-8.636-6.365-25.317-12.51-32.474-2.843-3.313-6.057-7.057-22.046-15.801L54.042 22.003 39.918 6.722l13.359 30.801 2.818 6.963c7.38-.373 13.42 2.021 16.31 6.494 1.854 2.87 2.022 6.116.46 8.906-.794 1.42-1.984 2.619-3.51 3.578zM35.958 4.34C16.453 13.59 7.847 24.53 3.425 45.28 2.029 51.83 2.6 56.925 5.077 60.02c1.788 2.232 4.58 3.39 8.299 3.444H58.71c5.864-.12 10.122-1.87 11.81-4.884 1.062-1.896.926-4.138-.374-6.15-1.91-2.953-6.807-5.87-14.82-5.208l-.988.082-3.54-8.748L35.958 4.34zm22.106 61.809c-.224 0-.45-.003-.678-.007H13.357c-4.582-.066-8.066-1.563-10.38-4.451-2.994-3.742-3.749-9.61-2.18-16.969C5.583 22.263 15.047 10.802 36.96.924l.885-.398 16.194 17.522L69.888.837l.923.5C88.033 10.677 91.486 14.7 94.534 18.25c6.648 7.742 12.63 24.966 13.151 34.063.211 3.706-.96 7.107-3.299 9.575-2.637 2.782-6.613 4.254-11.496 4.254H58.733c-.22.004-.443.007-.669.007z" mask="url(#b)"/></g><path fill="#4A4A4A" d="M36.604 122.22L23.597 65.935l2.62-.601 13.005 56.287zm24.736-.585l-8.006-20.21 2.499-.984 8.006 20.211z"/></g></svg>