<svg xmlns="http://www.w3.org/2000/svg" xmlns:xlink="http://www.w3.org/1999/xlink" width="149" height="123" viewBox="0 0 149 123"><defs><path id="a" d="M.057.185h49.167v38.88H.057V.186z"/><path id="c" d="M71.154.16v51.85H.062V.16z"/><path id="e" d="M0 122.055h149.004V.185H0z"/></defs><g fill="none" fill-rule="evenodd" opacity=".2"><path fill="#4A4A4A" d="M35.802 46.31l29.83 19.43 15.19-23.465-29.83-19.43-15.19 23.465zm30.721 23.633l-34.912-22.74 18.49-28.561 34.911 22.74-18.489 28.561z"/><g transform="translate(0 .124)"><g transform="translate(49.675)"><mask id="b" fill="#fff"><use xlink:href="#a"/></mask><path fill="#4A4A4A" d="M8.8 3.223c-.155 0-.313.016-.469.044a2.272 2.272 0 0 0-1.496.993L3.447 9.465c-.71 1.09-.346 2.596.813 3.354L39.055 35.6c1.157.758 2.678.484 3.387-.605l3.387-5.207c.337-.52.445-1.149.301-1.773a2.568 2.568 0 0 0-1.112-1.58L10.222 3.654a2.585 2.585 0 0 0-1.421-.43m31.672 35.842a5.594 5.594 0 0 1-3.073-.923L2.605 15.364C.048 13.69-.712 10.3.91 7.804L4.298 2.6A5.276 5.276 0 0 1 7.765.282a5.576 5.576 0 0 1 4.114.828l34.793 22.78a5.602 5.602 0 0 1 2.412 3.442 5.314 5.314 0 0 1-.718 4.117l-3.387 5.205c-1.018 1.565-2.735 2.412-4.506 2.412" mask="url(#b)"/></g><path fill="#4A4A4A" d="M26.474 52.641c-.78 0-1.525.362-1.963 1.035l-3.388 5.205a2.285 2.285 0 0 0-.302 1.775 2.58 2.58 0 0 0 1.114 1.58l34.797 22.779c.569.372 1.24.51 1.89.386a2.265 2.265 0 0 0 1.496-.99l3.388-5.206c.71-1.091.346-2.597-.813-3.355L27.898 53.071c-.444-.29-.94-.43-1.424-.43m31.674 35.844a5.604 5.604 0 0 1-3.073-.925L20.28 64.78a5.606 5.606 0 0 1-2.412-3.442 5.312 5.312 0 0 1 .717-4.118l3.388-5.205c1.622-2.494 5.023-3.164 7.58-1.489l34.795 22.78c2.556 1.674 3.315 5.065 1.694 7.56l-3.388 5.205a5.27 5.27 0 0 1-3.467 2.315 5.473 5.473 0 0 1-1.04.099"/><g transform="translate(77.85 52.166)"><mask id="d" fill="#fff"><use xlink:href="#c"/></mask><path fill="#4A4A4A" d="M60.87 48.806c2.366.65 5.474-.773 7.194-1.865.167-1.792.11-5.263-1.537-7.194C47.857 25.263 28.362 13.256 8.559 4.04l-4.528 7.247C20.757 25.373 39.873 37.99 60.87 48.807m1.292 3.202a7.762 7.762 0 0 1-2.3-.333l-.246-.1C37.939 40.423 18.239 27.361 1.066 12.755l-1.004-.856L7.398.16 8.61.718c20.47 9.402 40.617 21.754 59.886 36.713l.195.183c3.345 3.702 2.33 10.176 2.284 10.45l-.103.622-.515.37c-.49.352-4.257 2.953-8.195 2.953" mask="url(#d)"/></g><path fill="#4A4A4A" d="M83.532 57.725l-7.82-5.06 1.642-2.553 7.82 5.06zm-3.268 5.2l-7.841-5.21 1.672-2.533 7.84 5.21zM3.03 119.016h62.667v-6.694h-7.478v-2.485c.007-3.193.014-5.715-.879-6.611-.425-.428-1.222-.638-2.435-.638H13.82c-1.213 0-2.01.21-2.436.638-.892.896-.886 3.418-.878 6.61v2.486H3.029v6.694zm65.696 3.039H0v-12.771h7.476c-.004-3.76.068-6.499 1.765-8.205 1.024-1.028 2.522-1.53 4.58-1.53h41.084c2.058 0 3.556.502 4.58 1.53 1.696 1.706 1.77 4.444 1.765 8.205h7.476v12.77z"/><mask id="f" fill="#fff"><use xlink:href="#e"/></mask><path fill="#4A4A4A" d="M8.994 112.322h50.74v-3.038H8.993z" mask="url(#f)"/></g></g></svg>