<svg xmlns="http://www.w3.org/2000/svg" xmlns:xlink="http://www.w3.org/1999/xlink" width="148" height="123" viewBox="0 0 148 123"><defs><path id="a" d="M.458.878h20.763v25.465H.458V.878z"/><path id="c" d="M0 .473V28.37h56.981V.473H0z"/><path id="e" d="M0 123.122h147.945V1.442H0z"/></defs><g fill="none" fill-rule="evenodd" opacity=".2" transform="translate(0 -1)"><path fill="#FEFEFE" d="M79.091 106.51c-.082.975-2.458-.124-2.829.81-.315-.99-.254-1.382-.376-3.757-.187-3.581-.413-7.162-.637-10.74l-.208-3.334c-.279-4.494-.56-8.99-.855-13.484-.029-.441-.06-.884-.094-1.325-.06.89-.122 1.78-.184 2.669-.153 2.214-.308 4.428-.454 6.641-.079 1.207-.14 2.417-.2 3.625-.061 1.211-.121 2.424-.2 3.633-.09 1.351-.196 2.7-.304 4.05a471.255 471.255 0 0 0-.238 3.115 161.562 161.562 0 0 0-.289 4.932c-.1 2.596-.046 2.94-.226 3.931-.007-.281-2.858-.124-2.849-.366.02-.633.042.186-.034-.444a2.986 2.986 0 0 0-.13-.573c.275-.352.35-2.21.368-2.661.066-1.676.175-3.35.293-5.024.075-1.047.158-2.092.242-3.139.104-1.335.21-2.672.298-4.01.078-1.195.138-2.392.199-3.59.062-1.223.122-2.447.202-3.668.147-2.219.3-4.435.454-6.653.177-2.532.354-5.062.516-7.594.138-2.118 1.57-2.457 2.41-2.471h.003c1.575 0 2.527.904 2.624 2.418.07 1.094.153 2.188.238 3.283.078 1.01.157 2.02.223 3.03.294 4.5.576 9 .855 13.496l.208 3.331c.226 3.59.451 7.18.638 10.774.035.683.1 2.67.354 2.992-.005.034-.015.067-.018.103z"/><g transform="translate(63.223 .564)"><mask id="b" fill="#fff"><use xlink:href="#a"/></mask><path fill="#FEFEFE" d="M10.84 3.762c-4.702 0-7.508 2.922-7.508 7.816 0 5.623 4.474 11.88 7.508 11.88 3.033 0 7.507-6.257 7.507-11.88 0-4.894-2.806-7.816-7.507-7.816m0 22.58C5.89 26.343.458 18.617.458 11.579c0-6.5 4.075-10.7 10.382-10.7 6.306 0 10.381 4.2 10.381 10.7 0 7.038-5.433 14.765-10.381 14.765" mask="url(#b)"/></g><path fill="#FEFEFE" d="M50.288 120.238h47.766v-4.62H92.29l.002-2.188c.006-2.304.01-4.294-.6-4.907-.271-.272-.839-.412-1.685-.412h-31.67c-.848 0-1.415.14-1.687.412-.61.613-.605 2.603-.6 4.907l.002 2.187h-5.764v4.621zm50.64 2.884H47.414v-10.389h5.762c.001-2.826.097-4.898 1.44-6.247.841-.847 2.059-1.259 3.721-1.259h31.67c1.66 0 2.879.412 3.72 1.259 1.341 1.35 1.438 3.421 1.439 6.247h5.762v10.39z"/><g transform="translate(0 85.09)"><mask id="d" fill="#fff"><use xlink:href="#c"/></mask><path fill="#FEFEFE" d="M4.434 3.357c-.496 0-.953.2-1.25.55-.144.168-.37.52-.296 1.001C4.718 16.64 15.725 25.486 28.49 25.486c12.766 0 23.772-8.847 25.604-20.578a1.239 1.239 0 0 0-.297-1c-.297-.35-.753-.551-1.25-.551H4.434zM28.49 28.37C14.324 28.37 2.096 18.475.05 5.354A4.134 4.134 0 0 1 1 2.033 4.496 4.496 0 0 1 4.435.473h48.113c1.338 0 2.59.57 3.436 1.56a4.133 4.133 0 0 1 .95 3.32C54.884 18.476 42.657 28.37 28.49 28.37z" mask="url(#d)"/></g><path fill="#FEFEFE" d="M95.398 88.447c-.496 0-.953.2-1.25.55-.144.168-.37.52-.296 1.001 1.83 11.731 12.837 20.579 25.603 20.579 12.765 0 23.771-8.848 25.604-20.579a1.239 1.239 0 0 0-.298-1c-.297-.35-.753-.551-1.25-.551H95.398zm24.057 25.013c-14.167 0-26.395-9.895-28.442-23.016a4.134 4.134 0 0 1 .95-3.32 4.496 4.496 0 0 1 3.435-1.56h48.113a4.5 4.5 0 0 1 3.436 1.56 4.133 4.133 0 0 1 .95 3.32c-2.048 13.12-14.275 23.016-28.442 23.016z"/><path fill="#FEFEFE" d="M76.909 56.292a.528.528 0 0 1 .002.048c-.688.848-1.95 2.216-2.847 3.175a299.147 299.147 0 0 1-2.98-3.166c.096-1.09 1.16-10.282 2.021-17.705.364-3.142.706-6.098.957-8.286l2.847 25.934zm45.6-28.563c-.815-1.86-2.565-3.111-4.783-3.244-1.044-.063-2.096-.023-3.146.019-.483.018-.966.037-1.449.044-8.841.137-26.148.365-34.93.365l-1.022-.001a21.25 21.25 0 0 0-.977-.133l-.298-.016c-.65 0-1.227.251-1.63.708-.038.046-.08.097-.12.153a1.81 1.81 0 0 0-.207-.278c-.329-.37-1.032-.802-2.217-.542-.138.03-.292.052-.464.077l-1.368.032c-8.896.002-26.242-.228-35.088-.365a60.711 60.711 0 0 1-1.448-.044c-1.052-.04-2.1-.081-3.148-.019-2.535.151-4.22 1.62-5.03 3.894L1.448 87.85l9.46.408 17.686-47.86L46.261 88.35l9.52-.252-20.853-52.342c2.163-.016 4.903-.032 7.836-.05 6.776-.041 14.52-.087 18.237-.138l.313-.001c1.132 0 1.4.114 1.424.118.003.003.059.092.1.4l.002.991c.017 2.564-.148 7.582-.244 9.67-.06 1.323-.095 2.647-.128 3.97-.023.88-.046 1.76-.076 2.639l-.012.323a100.974 100.974 0 0 1-.191 4.011c-.112 1.494-.237 2.986-.362 4.479a421.68 421.68 0 0 0-.414 5.21c-.134 1.878-.25 3.755-.365 5.634-.11 1.778-.218 3.557-.345 5.333-.148 2.097-.312 4.192-.474 6.288-.17 2.2-.342 4.4-.496 6.601-.166 2.36-.311 4.722-.457 7.085-.094 1.52-.188 3.041-.287 4.56-.1 1.54-.194 2.552-.249 3.758-.018.42 2.06.573 2.437.798.262-1.023.644.875.917-.142-.138-.236-.284-3.515-.237-4.224.1-1.524.193-3.048.287-4.57.146-2.355.29-4.71.456-7.062.154-2.194.325-4.387.494-6.58.164-2.103.326-4.205.476-6.307.126-1.787.236-3.573.346-5.36.115-1.87.23-3.738.364-5.604.123-1.727.267-3.453.412-5.178.125-1.5.25-3.002.362-4.504.102-1.373.151-2.75.198-4.127l.012-.321c.03-.888.053-1.777.076-2.665.033-1.305.066-2.608.127-3.912.097-2.116.264-7.207.247-9.811l-.002-1.077-.008-.17c-.374-3.138-2.888-3.138-4.39-3.138l-.352.001c-3.712.05-11.446.097-18.214.139-3.472.02-8.965.057-8.965.057l-3.106-.025 20.912 52.489-3.407.06L28.597 32.64 9.004 85.274l-3.393-.101s21.443-54.25 22.067-55.802c.34-1.048 1.5-1.935 2.707-2.007.95-.056 1.907-.017 2.864.02.505.02 1.011.04 1.517.048 8.854.136 26.217.366 35.132.365l1.277-.002.29-.027c-.228 2.02-.7 6.095-1.215 10.543-1.164 10.041-1.992 17.203-2.038 17.914-.045.706.219 1.483.673 1.982 1.237 1.357 4.147 4.396 4.147 4.396l1.034 1.083 1.038-1.083c.112-.116 2.726-2.847 3.97-4.36.813-.773.728-1.83.695-2.226L76.67 27.751l.164.026 1.366.02c8.8 0 26.126-.23 34.976-.365.504-.007 1.01-.027 1.516-.047.957-.038 1.914-.077 2.865-.02 1.15.069 2.681.996 3.055 1.96 1.21 2.875 22.096 56.06 22.017 56.076l-3.539-.136-19.529-52.626L99.95 85.323l-3.41-.055 20.946-52.426c-4.268 0-8.663.001-12.198-.02-6.727-.04-14.42-.087-18.14-.139l-.354-.001c-2.926 0-4.62.728-4.62 4.451l.009.79c.128 1.74.261 4.248.392 6.75.132 2.5.265 4.995.393 6.733.05.7.087 1.399.123 2.098.029.533.056 1.068.09 1.602l.29 4.422c.185 2.797.37 5.593.538 8.39.075 1.244.13 2.49.183 3.736.06 1.374.12 2.748.207 4.12.1 1.59.228 3.177.356 4.766.083 1.027.167 2.053.241 3.08.054.717.09 1.435.127 2.153.029.543.056 1.087.09 1.63l.28 4.327c.184 2.83.368 5.657.537 8.486.068 1.182.285 3.917.224 5.319-.013.301-.028.479-.112.615.363.504.366-.188.23.47-.094.458-.157.919-.229 1.379 1.256-.493 2.898.11 3.007-2.39.068-1.532-.178-4.307-.252-5.563-.167-2.835-.352-5.67-.536-8.504l-.28-4.322c-.034-.532-.06-1.065-.09-1.597-.037-.737-.076-1.477-.129-2.214-.076-1.035-.16-2.069-.243-3.102a259.058 259.058 0 0 1-.353-4.715c-.085-1.354-.144-2.71-.203-4.065-.056-1.262-.11-2.522-.187-3.782-.168-2.803-.353-5.606-.539-8.407l-.288-4.418c-.033-.522-.06-1.046-.088-1.569-.039-.72-.076-1.438-.13-2.156-.124-1.723-.255-4.197-.387-6.675-.132-2.525-.266-5.053-.397-6.77v-.617c0-1.143.158-1.37.173-1.389.053-.041.32-.178 1.573-.178l.316.001c3.723.05 11.425.097 18.161.139 2.989.017 5.78.034 7.955.05l-20.89 52.282 9.536.222 17.685-47.863 17.539 47.628 9.897.55S122.747 28.024 122.51 27.73z"/><mask id="f" fill="#fff"><use xlink:href="#e"/></mask><path fill="#FEFEFE" d="M49.245 115.613h48.136v-2.884H49.245z" mask="url(#f)"/></g></svg>