<svg xmlns="http://www.w3.org/2000/svg" width="221" height="180" viewBox="0 0 221 180"><g fill="none" fill-rule="evenodd" stroke="#9B9B9B" stroke-width="4" opacity=".2"><path d="M110.513 71.377a52.07 52.07 0 0 1-1.049-1.284c-.6-.605-1.195-1.212-1.807-1.803-1.166-.966-2.38-1.884-3.586-2.818-2.041-1.67-3.973-3.09-6.345-4.456-.117-.068-1.188-.032-1.292-.107C85.54 73.257 79.23 89.516 79.23 107.297c0 5.101.558 10.07 1.591 14.86l5.726 4.761 5.733-10.648 5.976 4.141c-1.357-4.714-1.634-7.963-1.634-13.114 0-13.843 5.271-26.436 13.892-35.92z" opacity=".904"/><path d="M149.073 37.279c-14.228 0-27.427 4.314-38.465 11.64a28.67 28.67 0 0 1 1.819 1.264c1.693 1.3 3.311 2.674 4.905 4.086.216.145.427.316.632.526 1.125 1.153 2.359 2.148 3.487 3.274.956.783 1.881 1.6 2.739 2.5 7.617-4.217 16.357-6.65 25.675-6.65 29.405 0 53.244 23.898 53.244 53.376 0 29.48-23.839 53.375-53.244 53.375-20.807 0-38.813-11.97-47.571-29.41l-7.624-4.623-5.733 10.682-4.722-4.048c10.293 25.804 35.444 44.04 64.858 44.04 38.575 0 69.843-31.346 69.843-70.016 0-38.668-31.268-70.016-69.843-70.016z" opacity=".904"/><path d="M78.154 37.564c-38.418-3.49-72.383 24.9-75.865 63.41-3.482 38.512 24.838 72.562 63.253 76.052 16.328 1.485 32.113-3.077 44.832-11.444-.576-.483-.97-.623-1.924-1.334-3.331-2.391-5.99-4.544-9.613-8.33-.601-.632-1.567-1.733-2.08-2.257-8.922 4.865-19.63 7.708-30.503 6.72-29.288-2.66-50.876-28.618-48.222-57.976 2.656-29.359 28.55-51 57.835-48.34 20.721 1.885 37.575 15.437 44.729 33.596l7.175 5.296 6.672-10.12 4.337 4.459c-7.927-26.63-31.332-47.069-60.626-49.732z" opacity=".904"/><path d="M141.16 98.67l-5.271-5.257-6.67 10.084-5.58-4.664c.928 4.817.91 8.078.446 13.209-1.073 11.896-6.462 22.282-13.858 30.529 1.008 1.063 2.066 2.55 3.126 3.56.928.883 1.8 1.627 2.996 2.47a157.33 157.33 0 0 0 4.641 3.438c1.072.778 1.986 1.401 3.037 1.931 9.446-10.756 15.992-24.987 17.38-40.353a70.373 70.373 0 0 0-.247-14.947zm20.974-60.165l-13.062-27.276 14.036-9.025 37.89 11.471 6.377 15.795-27.532 14.958" opacity=".904"/><path d="M171.831 40.466L160.72 14.944l13.57-9.355" opacity=".904"/></g></svg>