<svg xmlns="http://www.w3.org/2000/svg" width="66" height="60" viewBox="0 0 66 60"><path fill="#8C1A1A" d="M60.07 11.348H44.114V8.087a3.344 3.344 0 0 0 2.073-2.027 3.338 3.338 0 0 0-2.007-4.266C40.922.62 37 0 32.837 0s-8.085.62-11.343 1.794a3.338 3.338 0 0 0-2.006 4.266 3.33 3.33 0 0 0 2.072 2.027v3.26H5.603A5.61 5.61 0 0 0 0 16.95v37.447A5.61 5.61 0 0 0 5.603 60H60.07a5.61 5.61 0 0 0 5.603-5.603V16.95a5.61 5.61 0 0 0-5.603-5.602zM22.217 3.796c3.028-1.092 6.7-1.668 10.62-1.668 3.92 0 7.594.576 10.622 1.668a1.207 1.207 0 0 1-.408 2.34c-.14 0-.277-.024-.409-.071-2.73-.984-6.211-1.526-9.804-1.526s-7.075.542-9.804 1.526a1.207 1.207 0 0 1-1.543-.726c-.225-.626.1-1.318.726-1.543zm1.472 4.292l.066-.022c2.504-.902 5.73-1.4 9.083-1.4 3.353 0 6.578.498 9.083 1.4l.066.021v3.26H23.688V8.089zM2.128 16.95a3.48 3.48 0 0 1 3.475-3.475H60.07a3.48 3.48 0 0 1 3.475 3.475v10.213c0 6.922-5.631 12.553-12.553 12.553H37.305v-1.205a3.337 3.337 0 0 0-3.333-3.334h-2.27a3.337 3.337 0 0 0-3.333 3.334v1.205H14.68c-6.922 0-12.553-5.631-12.553-12.553V16.95zm33.05 23.83c0 .665-.542 1.206-1.206 1.206h-2.27a1.207 1.207 0 0 1-1.206-1.206v-2.27c0-.664.541-1.205 1.206-1.205h2.27c.664 0 1.205.54 1.205 1.206v2.27zm-4.682 3.107c.375.146.781.226 1.206.226h2.27c.425 0 .831-.08 1.205-.226v1.432c0 .665-.54 1.206-1.205 1.206h-2.27a1.207 1.207 0 0 1-1.206-1.206v-1.432zm33.05 10.51a3.48 3.48 0 0 1-3.475 3.475H5.603a3.48 3.48 0 0 1-3.475-3.475V34.77c2.577 4.238 7.24 7.075 12.553 7.075h13.688v3.475a3.337 3.337 0 0 0 3.333 3.333h2.27a3.337 3.337 0 0 0 3.333-3.333v-3.475h13.688c5.313 0 9.976-2.837 12.553-7.075v19.628z"/></svg>