<svg xmlns="http://www.w3.org/2000/svg" xmlns:xlink="http://www.w3.org/1999/xlink" width="70" height="70" viewBox="0 0 70 70"><defs><path id="a" d="M11.518 8.372c0-4.616 3.804-8.371 8.483-8.372 4.676.001 8.479 3.756 8.479 8.372 0 6.429 1.084 10.229 1.168 10.513a4.738 4.738 0 0 1 2.502 4.166v4.707h2.597v-8.73c0-.342-.135-.665-.381-.907l-1.728-1.707a1.12 1.12 0 0 1 0-1.6 1.157 1.157 0 0 1 1.621 0l1.729 1.707a3.5 3.5 0 0 1 1.051 2.507v8.917c1.421.473 2.446 1.8 2.446 3.359s-1.025 2.886-2.446 3.359H2.961c-1.42-.473-2.445-1.8-2.445-3.359 0-1.955 1.61-3.546 3.591-3.546H7.85v-4.707c0-1.759.978-3.342 2.502-4.165.08-.271 1.166-4.074 1.166-10.514zM14.26 6.09c2.186 1.14 5.171 1.426 7.615 1.426 2.037 0 3.699-.199 4.207-.267-.537-2.834-3.058-4.986-6.082-4.986a6.198 6.198 0 0 0-5.74 3.827zm.773 3.489c0 3.37 2.228 6.11 4.967 6.11 2.72 0 4.935-2.703 4.965-6.041-.808.07-1.863.133-3.046.133-2.118 0-4.645-.204-6.886-.93v.728zm-1.451 3.905a40.57 40.57 0 0 1-.65 4.47l1.366-.449c.531-.175.888-.664.888-1.217v-.449a8.343 8.343 0 0 1-1.604-2.355zm12.12 4.021l1.364.449a40.849 40.849 0 0 1-.649-4.468 8.33 8.33 0 0 1-1.603 2.353v.449c0 .553.357 1.042.888 1.217zm-3.013-.151a6.38 6.38 0 0 1-2.689.599 6.38 6.38 0 0 1-2.689-.599 3.54 3.54 0 0 1-1.56 1.964c.831 1.254 2.755 3.131 4.249 4.45 1.494-1.319 3.417-3.195 4.249-4.45a3.54 3.54 0 0 1-1.56-1.964zm-1.948 8.778a1.15 1.15 0 0 1-1.482 0c-.468-.391-4.368-3.694-5.688-6.003l-1.704.561a2.49 2.49 0 0 0-1.724 2.361v4.707h2.598v-1.282c0-.625.513-1.131 1.147-1.131.632 0 1.145.506 1.145 1.131v1.282h9.934v-1.282c0-.625.513-1.131 1.146-1.131.633 0 1.146.506 1.146 1.131v1.282h2.598v-4.707a2.49 2.49 0 0 0-1.724-2.361l-1.704-.561c-1.322 2.31-5.221 5.612-5.688 6.003zM2.808 31.304c0 .707.582 1.282 1.299 1.282h31.787c.716 0 1.298-.575 1.298-1.282 0-.707-.582-1.282-1.298-1.282H4.107c-.717 0-1.299.575-1.299 1.282z"/><path id="c" d="M1.187.837a1.168 1.168 0 0 0 .143 1.645L5.796 6.23a1.166 1.166 0 0 0 1.5-1.787L2.83.694a1.165 1.165 0 0 0-1.643.143z"/><path id="e" d="M.109 1.365a1.169 1.169 0 0 0 .698 1.496l5.48 1.994a1.163 1.163 0 0 0 1.496-.698 1.168 1.168 0 0 0-.698-1.496L1.605.668a1.169 1.169 0 0 0-1.496.697z"/><path id="g" d="M5.167.691L.699 4.443A1.166 1.166 0 0 0 2.198 6.23l4.469-3.751a1.167 1.167 0 0 0-1.5-1.788z"/><path id="i" d="M1.167.169a1.167 1.167 0 1 0 0 2.333h5.831a1.167 1.167 0 0 0 0-2.333H1.167z"/><path id="k" d="M6.394.665L.912 2.661a1.165 1.165 0 0 0 .4 2.263c.131 0 .267-.022.398-.071l5.482-1.995A1.167 1.167 0 1 0 6.394.665z"/><path id="m" d="M.666 23.334C.666 10.467 11.134 0 24 0s23.333 10.467 23.333 23.333c0 9.847-3.863 17.192-12.155 23.116a1.113 1.113 0 0 1-.156.094c-.049.027-1.302.727-1.617 2.694a3.5 3.5 0 0 1 2.262 3.263c0 .895-.338 1.714-.894 2.333.556.62.894 1.438.894 2.334 0 .896-.338 1.713-.894 2.333a3.48 3.48 0 0 1 .894 2.333c0 1.963-1.537 3.5-3.5 3.5h-3.5V66.5c0 1.93-1.571 3.5-3.5 3.5h-2.334c-1.929 0-3.5-1.57-3.5-3.5v-2.333c0-.644.523-1.167 1.167-1.167h11.667a1.14 1.14 0 0 0 1.166-1.166c0-.644-.522-1.167-1.166-1.167a1.166 1.166 0 1 1 0-2.333 1.167 1.167 0 0 0 0-2.334 1.166 1.166 0 1 1 0-2.333 1.167 1.167 0 0 0 0-2.332A1.167 1.167 0 0 1 31 50.167c0-3.774 2.337-5.343 2.874-5.652C41.568 39 45 32.465 45 23.334c0-11.579-9.421-21-20.999-21-11.58 0-21.001 9.421-21.001 21C3 32.466 6.432 39 14.127 44.515c.477.276 2.381 1.548 2.794 4.486H27.5a1.167 1.167 0 1 1 0 2.334H15.833a1.167 1.167 0 0 0 0 2.332H27.5a1.167 1.167 0 0 1 0 2.333H15.833a1.168 1.168 0 0 0 0 2.334H27.5a1.167 1.167 0 1 1 0 2.333H15.833a1.167 1.167 0 0 0 0 2.333 1.168 1.168 0 0 1 0 2.333 3.502 3.502 0 0 1-3.499-3.499c0-.897.337-1.715.893-2.334a3.486 3.486 0 0 1-.893-2.333c0-.896.337-1.714.893-2.333a3.489 3.489 0 0 1-.893-2.334c0-1.492.943-2.76 2.261-3.263-.315-1.967-1.571-2.668-1.631-2.701a1.587 1.587 0 0 1-.142-.087C4.528 40.525.666 33.18.666 23.334zM21.667 66.5c0 .643.524 1.167 1.166 1.167h2.334c.643 0 1.166-.524 1.166-1.167v-1.167h-4.666V66.5z"/><path id="o" d="M2 .166A1.167 1.167 0 0 0 2 2.5h5.833a1.166 1.166 0 1 0 0-2.334H2z"/></defs><g fill="none" fill-rule="evenodd"><g transform="translate(15 5)"><mask id="b" fill="#fff"><use xlink:href="#a"/></mask><path fill="#8E1815" d="M-4.485 39.663h48.969V-5H-4.485z" mask="url(#b)"/></g><g transform="translate(7)"><mask id="d" fill="#fff"><use xlink:href="#c"/></mask><path fill="#8E1815" d="M-4.087 11.503h16.799V-4.578H-4.087z" mask="url(#d)"/></g><g transform="translate(2 10)"><mask id="f" fill="#fff"><use xlink:href="#e"/></mask><path fill="#8E1815" d="M-4.961 9.926h17.814V-4.403H-4.961z" mask="url(#f)"/></g><g transform="translate(55)"><mask id="h" fill="#fff"><use xlink:href="#g"/></mask><path fill="#8E1815" d="M-4.718 11.503h16.801V-4.581H-4.718z" mask="url(#h)"/></g><g transform="translate(0 22)"><mask id="j" fill="#fff"><use xlink:href="#i"/></mask><path fill="#8E1815" d="M-5 7.502h18.164V-4.831H-5z" mask="url(#j)"/></g><g transform="translate(60 10)"><mask id="l" fill="#fff"><use xlink:href="#k"/></mask><path fill="#8E1815" d="M-4.856 9.924h17.815v-14.33H-4.856z" mask="url(#l)"/></g><g transform="translate(11)"><mask id="n" fill="#fff"><use xlink:href="#m"/></mask><path fill="#8E1815" d="M-4.333 75h56.667V-5H-4.333z" mask="url(#n)"/></g><g transform="translate(61 22)"><mask id="p" fill="#fff"><use xlink:href="#o"/></mask><path fill="#8E1815" d="M-4.167 7.5H14V-4.833H-4.167z" mask="url(#p)"/></g></g></svg>