<svg xmlns="http://www.w3.org/2000/svg" width="63" height="59" viewBox="0 0 63 59"><g fill="#8E1815" fill-rule="evenodd"><g fill-rule="nonzero"><path d="M37.242 33.103h9.31V21.724H7.243v30h20.69v-18.62h9.311zm0-9.31h7.242v7.241h-7.242v-7.24zm-18.62 0h7.241v7.241h-7.241v-7.24zm-9.31 0h7.24v7.241h-7.24v-7.24zm0 9.31h7.24v7.242h-7.24v-7.242zm7.24 16.552h-7.24v-7.241h7.24v7.241zm9.311 0h-7.241v-7.241h7.241v7.241zm0-9.31h-7.241v-7.242h7.241v7.242zm2.07-9.31v-7.242h7.24v7.241h-7.24z"/><path d="M26.898 56.897H2.07V16.552h49.655V30a1.034 1.034 0 1 0 2.07 0V5.172c0-.572-.463-1.034-1.035-1.034h-5.173V1.034C47.587.462 47.125 0 46.553 0H39.31c-.572 0-1.034.462-1.034 1.034v3.104H15.518V1.034C15.518.462 15.056 0 14.484 0H7.242C6.67 0 6.208.462 6.208 1.034v3.104H1.036C.463 4.138 0 4.6 0 5.172v52.759c0 .572.462 1.035 1.035 1.035h25.862a1.034 1.034 0 1 0 0-2.07zM40.346 2.069h5.172v6.207h-5.172V2.069zm-32.07 0h5.173v6.207H8.277V2.069zM2.07 6.207h4.138V9.31c0 .572.462 1.035 1.034 1.035h7.242c.572 0 1.034-.463 1.034-1.035V6.207h22.759V9.31c0 .572.462 1.035 1.034 1.035h7.242c.572 0 1.034-.463 1.034-1.035V6.207h4.138v8.276H2.07V6.207z"/></g><path d="M38.533 57.276c-4.991 0-6.394-2.346-6.555-2.622a1.164 1.164 0 0 1 .46-1.564 1.15 1.15 0 0 1 1.541.437c.046.046.276.368.874.69 1.15.621 2.645.759 3.68.759 1.518 0 2.668-.322 3.312-.92.506-.46.621-1.035.621-1.426 0-.851-.253-1.495-.805-2.024-.713-.713-1.955-1.242-3.703-1.587-1.265-.276-2.369-.713-3.243-1.311a5.547 5.547 0 0 1-1.725-1.863c-.667-1.15-.667-2.185-.667-2.461 0-1.219.575-2.438 1.564-3.312.483-.437 1.081-.782 1.748-1.035.69-.253 1.449-.368 2.231-.368 4.485 0 5.796 2.116 5.934 2.369.299.552.115 1.265-.437 1.564-.552.299-1.242.115-1.541-.414-.046-.046-.253-.299-.759-.598-.552-.276-1.541-.621-3.197-.621-1.265 0-2.024.437-2.461.828-.483.437-.782 1.035-.782 1.633v.046c0 .092 0 .667.414 1.334.253.414.598.759 1.058 1.058.598.391 1.38.69 2.323.897 2.208.437 3.795 1.15 4.853 2.185.989.966 1.495 2.208 1.495 3.68 0 1.196-.483 2.3-1.357 3.128-1.081 1.012-2.737 1.518-4.876 1.518zm16.261 0c-1.679 0-3.128-.345-4.301-1.035-1.012-.575-1.794-1.38-2.369-2.415-.943-1.748-.943-3.565-.943-4.163v-9.591c0-.621.529-1.15 1.15-1.15.644 0 1.15.529 1.15 1.15v9.591c0 .46 0 1.84.667 3.059.368.667.851 1.173 1.495 1.541.805.46 1.863.713 3.151.713 1.288 0 2.346-.253 3.151-.713a3.892 3.892 0 0 0 1.472-1.518c.667-1.242.667-2.622.667-3.082v-9.591c0-.621.529-1.15 1.15-1.15.644 0 1.15.529 1.15 1.15v9.591c0 .598 0 2.438-.943 4.163-.851 1.587-2.691 3.45-6.647 3.45z"/></g></svg>